<svg width="56" height="70" viewBox="0 0 56 70" fill="none" xmlns="http://www.w3.org/2000/svg">
<g clip-path="url(#clip0_9_8)">
<path d="M30.1683 62.3555C44.8035 61.0517 55.384 49.2042 56 34.7352C55.3193 18.7472 42.1033 6.14721 25.8318 7.65921C11.606 8.98046 0.0315329 20.7772 3.29498e-05 35.2777C-0.034967 51.369 14.4113 63.759 30.1683 62.3555ZM36.1323 10.006C47.0873 13.8472 53.4905 23.9972 53.9718 35.2777C53.242 52.4312 37.3083 66.1092 19.8678 60.007C9.28728 56.3057 2.00903 45.9142 2.02828 34.7352C2.05803 17.4365 19.285 4.09971 36.1323 10.006Z" fill="#555555"/>
<path d="M27.0708 52.5204C27.5643 53.0139 28.3938 52.8162 28.8453 52.3647C34.5398 46.6737 40.2343 40.9827 45.9288 35.2917C45.948 35.2724 45.948 35.2567 45.9655 35.2392C46.039 35.1674 46.0898 35.0939 46.1195 35.0134C46.13 34.9872 46.1318 34.9627 46.1353 34.9364C46.144 34.8822 46.1458 34.8297 46.1283 34.7754C46.1178 34.7474 46.1038 34.7229 46.0863 34.6984C46.0618 34.6547 46.0565 34.6109 46.0128 34.5672C40.3183 28.8762 34.6238 23.1852 28.9293 17.4942C28.4358 17.0007 27.6063 17.1984 27.1548 17.6499C21.4603 23.3409 15.7658 29.0319 10.0713 34.7229C9.90328 34.8909 9.78953 35.2532 9.98553 35.4492C15.68 41.1384 21.3745 46.8294 27.0708 52.5204ZM20.3035 26.7552C22.8288 24.2317 25.354 21.7082 27.8793 19.1847C33.1975 24.4994 38.5158 29.8142 43.834 35.1289C38.5963 40.3632 33.3585 45.5974 28.1208 50.8317C25.7005 48.4132 23.282 45.9964 20.8618 43.5779C19.4793 42.1954 11.9595 35.9917 11.872 34.9312C11.8213 34.3152 19.18 27.8787 20.3035 26.7552Z" fill="#555555"/>
</g>
<defs>
<clipPath id="clip0_9_8">
<rect width="56" height="70" fill="white"/>
</clipPath>
</defs>
</svg>
