<svg width="56" height="70" viewBox="0 0 56 70" fill="none" xmlns="http://www.w3.org/2000/svg">
<g clip-path="url(#clip0_9_21)">
<path d="M31.318 22.1132C30.2558 2.40295 -0.0314754 3.1852 2.45538e-05 22.6575C0.0315246 42.6565 30.2838 41.3037 31.318 22.1132ZM4.01627 14.828C6.35602 10.8555 7.41652 11.2877 12.3708 9.97695C17.3215 8.6662 17.2638 7.90845 20.7778 9.5027C26.1153 11.9212 28.98 16.928 29.2898 22.6575C29.12 25.818 28.329 28.541 26.4548 31.0977C24.1903 34.1865 23.8998 33.483 18.9473 34.7937C14.301 36.024 12.9833 36.8622 9.22077 34.6712C4.80377 32.0987 2.03002 27.2127 2.02827 22.115C2.02827 19.595 2.73877 16.998 4.01627 14.828Z" fill="#555555"/>
<path d="M56 35.9749C56 35.6284 55.6903 35.4797 55.3683 35.4797H29.757C29.4123 35.4797 28.3553 35.6687 28.3553 36.2077V61.8084C28.3553 62.1549 28.665 62.3037 28.987 62.3037H54.5458C55.146 62.3702 56 62.0429 56 61.5757V35.9749ZM34.1425 61.0804C33.2063 61.0804 32.1475 60.9404 31.2183 61.0804C30.954 61.1207 30.5655 61.0542 30.296 61.0367C30.45 60.2334 30.387 58.0022 30.387 57.5699V36.7029H50.2093C51.1455 36.7029 52.2043 36.8429 53.1335 36.7029C53.3978 36.6627 53.7863 36.7292 54.0558 36.7467C53.9018 37.5499 53.9648 39.7812 53.9648 40.2134V61.0804H34.1425Z" fill="#555555"/>
</g>
<defs>
<clipPath id="clip0_9_21">
<rect width="56" height="70" fill="white"/>
</clipPath>
</defs>
</svg>
