<svg width="56" height="70" viewBox="0 0 56 70" fill="none" xmlns="http://www.w3.org/2000/svg">
<g clip-path="url(#clip0_9_12)">
<path d="M26.1258 50.4475C25.2368 33.9327 0.0840035 34.1375 3.54479e-06 50.619C-0.0857465 67.3612 25.2508 66.7015 26.1258 50.4475ZM12.8345 39.279C19.2255 39.1145 23.751 44.6095 24.0748 50.6207C23.7335 56.9452 18.9595 62.5347 12.1083 61.791C6.4645 61.1785 2.0545 56.0842 2.04925 50.4492C2.04575 44.3942 6.78125 39.4347 12.8345 39.279Z" fill="#555555"/>
<path d="M29.897 50.7415C29.8165 67.3577 55.1373 66.32 55.9948 50.3915C55.9965 50.3687 55.979 50.3582 55.9773 50.3372C55.9808 50.311 56 50.2882 56 50.262C55.118 33.8837 29.9758 34.5785 29.897 50.7415ZM39.9578 61.497C35.1628 59.8905 31.997 55.3282 31.9918 50.3267C31.9848 42.9837 39.1353 36.9462 46.5203 39.8005C51.1595 41.5942 53.6935 45.964 53.9665 50.7642C53.5448 57.7065 47.4425 64.003 39.9578 61.497Z" fill="#555555"/>
<path d="M41.0375 18.9668C40.1572 2.62876 14.9187 3.47051 14.9327 19.5093C14.9485 36.0888 40.187 34.771 41.0375 18.9668ZM30.6862 29.4318C27.0567 30.3925 25.8825 31.0418 22.8672 29.2883C19.2342 27.1778 16.9662 23.1528 16.9627 18.9668C16.961 16.9158 17.528 14.744 18.592 12.9818C20.398 9.99276 21.5267 10.04 25.2857 9.04426C28.875 8.09401 29.6835 7.41676 32.5535 8.90076C36.6292 11.0095 38.7695 15.038 39.0092 19.5093C38.8815 21.8648 38.3512 24.0295 37.0405 26.0105C35.2712 28.6898 34.2877 28.4798 30.6862 29.4318Z" fill="#555555"/>
</g>
<defs>
<clipPath id="clip0_9_12">
<rect width="56" height="70" fill="white"/>
</clipPath>
</defs>
</svg>
