<svg width="56" height="70" viewBox="0 0 56 70" fill="none" xmlns="http://www.w3.org/2000/svg">
<path d="M55.3735 7.44598H1.46475C0.86275 7.38123 0 7.70848 0 8.16348V62.088C0 62.431 0.3115 62.5622 0.6265 62.5622H54.5947C54.9272 62.5622 56 62.3715 56 61.8447V7.92023C56 7.57723 55.6885 7.44598 55.3735 7.44598ZM28.1102 40.3775C21.9975 29.797 15.883 19.2182 9.77025 8.63773H46.4502C40.3358 19.2182 34.223 29.797 28.1102 40.3775ZM40.8678 61.3705H11.5062C9.023 61.3705 4.85625 62.2157 2.5095 61.3705C1.393 60.968 2.03525 62.2087 2.03 59.4332C1.995 42.502 2.02825 25.569 2.03 8.63773H7.49525C7.49875 8.71823 7.5075 8.79873 7.55475 8.88273C14.063 20.1475 20.573 31.4122 27.0813 42.6752C27.426 43.272 28.7122 42.7697 28.973 42.32C35.4795 31.0605 41.986 19.7992 48.4925 8.53973C50.4385 8.36123 53.4783 8.04623 54.3095 8.63773C53.585 8.12323 53.9683 10.8217 53.9683 12.318V39.4115C53.9683 46.695 54.4845 54.1867 53.9683 61.4562C53.9683 61.465 53.9718 61.4667 53.97 61.4755C53.305 61.472 52.5315 61.388 52.1377 61.3705C48.4015 61.1972 44.6093 61.3705 40.8678 61.3705Z" fill="#555555"/>
</svg>
