<svg width="56" height="70" viewBox="0 0 56 70" fill="none" xmlns="http://www.w3.org/2000/svg">
<path d="M0.6195 62.5376H54.523C55.125 62.6006 56 62.2751 56 61.8341V7.90434C56 7.56484 55.6867 7.45459 55.3805 7.45459H1.40875C1.09025 7.45459 0 7.64884 0 8.15809V62.0878C0 62.4273 0.31325 62.5376 0.6195 62.5376ZM15.1252 8.60784H44.4885C46.949 8.60784 51.1665 7.75034 53.4852 8.60784C54.6017 9.02084 53.9613 7.81509 53.9717 10.5696C54.0295 27.5078 53.9735 44.4461 53.9717 61.3826H8.8935C7.64925 61.3826 2.75625 62.1508 1.694 61.3826C2.394 61.8883 2.03 59.1163 2.03 57.6761V30.5808C2.03 23.2938 1.52075 15.8056 2.03 8.53434C2.03 8.52034 2.02475 8.51684 2.02475 8.50284C2.68975 8.50634 3.46325 8.59034 3.85525 8.60784C7.59325 8.77759 11.3855 8.60784 15.1252 8.60784Z" fill="#555555"/>
<path d="M44.3065 34.9103C44.3083 34.8806 44.289 34.8631 44.2855 34.8351C44.289 34.8088 44.3065 34.7878 44.3048 34.7598C43.1953 14.1693 11.7688 14.7643 11.6953 35.2288C11.6183 56.1168 43.2198 55.0738 44.3065 34.9103ZM32.0863 21.1413C38.3705 23.1818 41.8968 28.8448 42.266 35.2271C41.7603 43.9088 34.6448 51.3183 25.3365 49.3916C18.5343 47.9846 13.8128 41.6111 13.8128 34.8333C13.8163 25.4568 22.7343 18.1068 32.0863 21.1413Z" fill="#555555"/>
</svg>
