<svg width="12" height="12" viewBox="0 0 12 12" fill="none" xmlns="http://www.w3.org/2000/svg">
<path d="M0.65625 8.74219C0.21875 7.86719 0 6.92969 0 5.92969C0 4.91406 0.234375 3.95312 0.703125 3.04688C1.17188 2.14062 1.85156 1.40625 2.74219 0.84375C3.64844 0.28125 4.72656 0 5.97656 0C7.21094 0 8.26562 0.273438 9.14062 0.820312C10.0156 1.36719 10.6719 2.08594 11.1094 2.97656C11.5469 3.85156 11.7656 4.79688 11.7656 5.8125C11.7656 6.8125 11.5391 7.76562 11.0859 8.67188C10.6328 9.5625 9.95312 10.2891 9.04688 10.8516C8.15625 11.3984 7.09375 11.6719 5.85938 11.6719C4.625 11.6719 3.5625 11.4062 2.67188 10.875C1.78125 10.3281 1.10938 9.61719 0.65625 8.74219ZM3.46875 3.30469C2.90625 3.99219 2.625 4.85156 2.625 5.88281C2.625 6.52344 2.76562 7.11719 3.04688 7.66406C3.32812 8.19531 3.72656 8.625 4.24219 8.95312C4.75781 9.26562 5.36719 9.42188 6.07031 9.42188C7.11719 9.42188 7.91406 9.08594 8.46094 8.41406C9.02344 7.74219 9.30469 6.89844 9.30469 5.88281C9.30469 4.85156 9.01562 3.99219 8.4375 3.30469C7.85938 2.61719 7.03125 2.27344 5.95312 2.27344C4.875 2.27344 4.04688 2.61719 3.46875 3.30469Z" fill="#F31F1F"/>
</svg>
