<svg width="56" height="70" viewBox="0 0 56 70" fill="none" xmlns="http://www.w3.org/2000/svg">
<g clip-path="url(#clip0_9_17)">
<path d="M2.21726 59.0401C6.33326 64.4599 15.9583 62.5786 21.7998 62.5786H46.1353C46.1388 62.5786 46.1423 62.5769 46.1458 62.5769C46.2263 62.5786 46.2945 62.5891 46.3943 62.5751C53.123 61.6634 55.699 57.4599 55.8793 51.0549C56.1225 42.4781 55.8793 33.8594 55.8793 25.2791C55.8793 19.8191 57.1498 12.3746 51.506 9.11786C46.7495 6.37211 38.7468 7.85261 33.5913 7.85261C24.0293 7.85261 1.70451 3.14161 0.332507 17.3796C-0.418243 25.1724 0.332507 33.4096 0.332507 41.2339C0.332507 46.3719 -1.14274 54.6144 2.21726 59.0401ZM2.37476 17.0279C3.62951 12.9014 7.80851 9.81786 11.7495 9.18086C14.4043 8.75036 17.4965 9.18086 20.1845 9.18086H41.0043C47.6035 9.18086 52.8465 10.2396 53.837 18.2109C54.6613 24.8364 53.837 32.0604 53.837 38.7384C53.837 44.7619 56.588 59.8959 46.627 61.2539C35.5898 61.2591 24.5035 61.5776 13.4733 61.2521C6.96676 61.0596 2.59001 58.1599 2.37651 51.0566C2.18226 44.6149 2.37651 38.1381 2.37651 31.6946C2.37476 27.4719 1.13751 21.0984 2.37476 17.0279Z" fill="#555555"/>
<path d="M21.406 49.5114C22.953 50.3986 25.8738 52.9746 27.8075 52.8924C29.813 52.8066 32.2525 50.5981 33.887 49.6601C37.1683 47.7789 40.4495 45.8976 43.7325 44.0164C43.9128 43.9131 44.1473 43.7941 44.1473 43.5579V26.3291C44.1263 26.2994 44.1053 26.2696 44.0843 26.2381C40.992 24.4654 37.898 22.6926 34.8058 20.9199C33.2588 20.0326 30.338 17.4566 28.4043 17.5389C26.3988 17.6246 23.9593 19.8331 22.3248 20.7711C19.0593 22.6436 15.792 24.5161 12.5265 26.3869C12.2623 26.5111 12.0645 26.6739 12.0645 26.8734V44.1021C12.0855 44.1319 12.1065 44.1616 12.1275 44.1931C15.2198 45.9641 18.3138 47.7386 21.406 49.5114ZM26.131 19.6511C26.5283 19.4236 27.174 18.9424 27.734 18.6519C27.8355 18.7306 27.9703 18.8199 28.161 18.9266C30.142 20.0396 32.1055 21.1876 34.076 22.3181C36.0955 23.4749 39.5973 24.6386 41.1758 26.3886C42.3273 27.6644 42.119 27.6749 42.119 29.8256V38.8101C42.119 39.9266 42.4813 43.4406 42.266 43.8379C41.0953 46.0026 32.8563 49.1894 30.0808 50.7819C29.61 51.0514 29.015 51.5204 28.4463 51.8004C28.35 51.7164 28.2328 51.6236 28.0508 51.5064C25.9648 50.1501 23.7003 49.0126 21.5425 47.7754C17.7398 45.5949 14.091 45.0786 14.091 40.6074V26.5514C18.1055 24.2501 22.1183 21.9506 26.131 19.6511Z" fill="#555555"/>
</g>
<defs>
<clipPath id="clip0_9_17">
<rect width="56" height="70" fill="white"/>
</clipPath>
</defs>
</svg>
