<svg width="407" height="428" viewBox="0 0 407 428" fill="none" xmlns="http://www.w3.org/2000/svg">
<path d="M198.308 331.262C201.287 334.234 206.285 333.043 209.022 330.324C263.249 276.289 317.476 222.253 371.713 168.218C371.829 168.102 371.829 168.007 371.935 167.891C372.379 167.459 372.685 167.016 372.865 166.532C372.928 166.363 372.939 166.226 372.96 166.068C373.013 165.741 373.023 165.425 372.928 165.098C372.865 164.93 372.77 164.782 372.664 164.624C372.516 164.361 372.485 164.097 372.22 163.834C317.994 109.809 263.767 55.7733 209.529 1.73786C206.549 -1.23425 201.552 -0.0432981 198.815 2.67586C144.588 56.7113 90.3611 110.747 36.1342 164.782C35.1199 165.794 34.4436 167.976 35.6271 169.156C89.8434 223.191 144.081 277.227 198.308 331.262ZM205.06 322.03C203.686 320.912 201.182 318.71 197.41 313.862C174.819 284.857 143.172 259.816 117.126 233.868C102.555 219.344 60.4581 190.698 50.9061 169.852C77.6392 169.852 104.383 169.852 131.116 169.852C153.495 192.153 175.865 214.444 198.244 236.745C200.822 239.317 206.613 237.694 208.864 235.449C230.81 213.59 252.746 191.721 274.692 169.862C301.933 169.862 329.173 169.862 356.413 169.862C311.897 214.222 267.38 258.583 222.864 302.932C217.729 308.044 211.505 316.707 205.06 322.03ZM202.904 105.783C222.093 124.901 241.281 144.03 260.47 163.148C221.564 163.148 182.659 163.148 143.753 163.148C150.611 156.119 170.941 137.633 174.85 133.744C184.202 124.427 193.553 115.11 202.904 105.783ZM262.499 169.852C243.31 188.97 224.121 208.099 204.933 227.217C195.772 218.09 186.621 208.963 177.46 199.847C172.969 195.367 152.481 178.051 144.588 169.862C183.895 169.852 223.202 169.852 262.499 169.852ZM91.8721 122.846C121.025 93.7993 150.167 64.7528 179.32 35.7063C187.604 27.4539 195.729 19.0224 204.172 10.9282C204.753 12.077 205.514 13.4787 206.634 15.3547C225.738 47.3418 267.972 76.4726 294.346 102.758C314.549 122.888 334.752 143.018 354.955 163.148C328.877 163.148 302.799 163.148 276.721 163.148C254.341 140.847 231.972 118.556 209.593 96.255C207.014 93.6834 201.235 95.3065 198.973 97.5514C177.027 119.41 155.091 141.279 133.145 163.138C105.661 163.138 78.1886 163.138 50.7053 163.138C52.8081 161.23 55.4919 159.249 56.4006 158.174C66.9988 145.579 80.2068 134.46 91.8721 122.846Z" fill="#555555"/>
<path d="M38.2711 362.07C38.4924 362.253 38.6031 362.493 38.6031 362.793V365.078C38.6031 365.43 38.5055 365.703 38.3102 365.898C38.1279 366.081 37.9065 366.172 37.6461 366.172C37.3987 366.172 37.1838 366.087 37.0016 365.918C36.8193 365.736 36.7281 365.482 36.7281 365.156V363.34C35.2047 363.444 34.0198 363.691 33.1734 364.082C32.3401 364.46 31.7477 365.02 31.3961 365.762C31.0575 366.504 30.8883 367.5 30.8883 368.75V370.039H36.9234C37.1708 370.039 37.3596 370.124 37.4898 370.293C37.6331 370.449 37.7047 370.632 37.7047 370.84C37.7047 371.061 37.6331 371.25 37.4898 371.406C37.3466 371.562 37.1513 371.641 36.9039 371.641H30.8687L30.8883 383.398H37.9586C38.193 383.398 38.3753 383.483 38.5055 383.652C38.6487 383.809 38.7203 383.991 38.7203 384.199C38.7203 384.421 38.6487 384.609 38.5055 384.766C38.3753 384.922 38.1865 385 37.9391 385H24.7555C24.469 385 24.2477 384.922 24.0914 384.766C23.9352 384.596 23.857 384.401 23.857 384.18C23.857 383.971 23.9286 383.789 24.0719 383.633C24.2151 383.477 24.4169 383.398 24.6773 383.398H28.9937V371.641H25.2437C24.9573 371.641 24.7359 371.562 24.5797 371.406C24.4234 371.237 24.3453 371.042 24.3453 370.82C24.3453 370.612 24.4169 370.43 24.5602 370.273C24.7034 370.117 24.9052 370.039 25.1656 370.039H28.9937V368.633C28.9937 366.328 29.7229 364.616 31.1812 363.496C32.6526 362.363 34.7555 361.797 37.4898 361.797C37.8023 361.797 38.0628 361.888 38.2711 362.07ZM63.2297 373.828C63.0474 373.646 62.9562 373.392 62.9562 373.066V370.723C61.2115 370.723 59.6685 371.068 58.3273 371.758C56.9862 372.435 56.0552 373.424 55.5344 374.727V383.398H62.0969C62.3443 383.398 62.5331 383.477 62.6633 383.633C62.8065 383.789 62.8781 383.978 62.8781 384.199C62.8781 384.408 62.8065 384.596 62.6633 384.766C62.52 384.922 62.3247 385 62.0773 385H50.1633C49.8768 385 49.6555 384.922 49.4992 384.766C49.343 384.596 49.2648 384.401 49.2648 384.18C49.2648 383.971 49.3365 383.789 49.4797 383.633C49.6229 383.477 49.8247 383.398 50.0852 383.398H53.6594V371.152L51.2766 371.641C51.2245 371.654 51.1463 371.66 51.0422 371.66C50.7948 371.66 50.5995 371.582 50.4562 371.426C50.326 371.27 50.2609 371.087 50.2609 370.879C50.2609 370.697 50.313 370.54 50.4172 370.41C50.5213 370.267 50.6646 370.176 50.8469 370.137L54.1867 369.473C54.356 369.434 54.5057 369.414 54.6359 369.414C54.9224 369.414 55.1112 369.505 55.2023 369.688C55.3065 369.87 55.3651 370.143 55.3781 370.508L55.4562 372.539C56.9406 370.26 59.4927 369.121 63.1125 369.121C63.7375 369.121 64.1802 369.219 64.4406 369.414C64.701 369.609 64.8312 369.902 64.8312 370.293V372.988C64.8312 373.34 64.7336 373.613 64.5383 373.809C64.356 373.991 64.1346 374.082 63.8742 374.082C63.6268 374.082 63.412 373.997 63.2297 373.828ZM87.5047 375.82V375.43C87.5047 373.906 87.2052 372.741 86.6062 371.934C86.0203 371.126 84.9982 370.723 83.5398 370.723C82.7195 370.723 81.9643 370.794 81.2742 370.938C80.5971 371.068 79.9135 371.289 79.2234 371.602C79.1714 372.604 79.0542 373.359 78.8719 373.867C78.6896 374.375 78.3771 374.629 77.9344 374.629C77.5568 374.629 77.2638 374.499 77.0555 374.238C76.8602 373.978 76.7625 373.639 76.7625 373.223C76.7625 372.441 77.049 371.738 77.6219 371.113C78.1948 370.488 78.9956 370 80.0242 369.648C81.0529 369.297 82.2312 369.121 83.5594 369.121C85.0568 369.121 86.2286 369.401 87.075 369.961C87.9344 370.521 88.5333 371.328 88.8719 372.383C89.2104 373.424 89.3797 374.74 89.3797 376.328V382.422C89.3797 382.878 89.4708 383.19 89.6531 383.359C89.8354 383.516 90.0828 383.594 90.3953 383.594C90.7339 383.594 91.0919 383.496 91.4695 383.301C91.8471 383.092 92.1466 382.871 92.368 382.637C92.5112 382.48 92.6674 382.402 92.8367 382.402C93.032 382.402 93.2013 382.487 93.3445 382.656C93.4878 382.826 93.5594 383.014 93.5594 383.223C93.5594 383.418 93.4943 383.581 93.3641 383.711C92.9474 384.154 92.4656 384.505 91.9187 384.766C91.3849 385.013 90.825 385.137 90.2391 385.137C89.575 385.137 89.0151 384.98 88.5594 384.668C88.1036 384.342 87.7977 383.717 87.6414 382.793C87.0034 383.509 86.1049 384.108 84.9461 384.59C83.8003 385.072 82.5503 385.312 81.1961 385.312C79.7378 385.312 78.5984 384.915 77.7781 384.121C76.9578 383.314 76.5477 382.24 76.5477 380.898C76.5477 379.544 76.9773 378.522 77.8367 377.832C78.6961 377.142 79.7508 376.686 81.0008 376.465C82.2638 376.243 83.9565 376.061 86.0789 375.918L87.5047 375.82ZM84.7898 383.086C85.8966 382.643 86.8016 382.051 87.5047 381.309V377.168L86.7039 377.246C84.5685 377.454 82.9669 377.656 81.8992 377.852C80.8445 378.034 80.0047 378.359 79.3797 378.828C78.7547 379.297 78.4422 379.987 78.4422 380.898C78.4422 381.888 78.7091 382.611 79.243 383.066C79.7898 383.509 80.5125 383.73 81.4109 383.73C82.5698 383.73 83.6961 383.516 84.7898 383.086ZM115.686 383.398V374.453C115.686 373.268 115.386 372.35 114.787 371.699C114.202 371.048 113.329 370.723 112.17 370.723C110.985 370.723 109.911 370.951 108.948 371.406C107.997 371.862 107.255 372.435 106.721 373.125C106.187 373.815 105.92 374.499 105.92 375.176V383.398H107.971C108.271 383.398 108.498 383.477 108.655 383.633C108.824 383.789 108.909 383.971 108.909 384.18C108.909 384.401 108.817 384.596 108.635 384.766C108.466 384.922 108.232 385 107.932 385H102.014C101.728 385 101.506 384.915 101.35 384.746C101.194 384.577 101.116 384.382 101.116 384.16C101.116 383.952 101.187 383.776 101.33 383.633C101.474 383.477 101.676 383.398 101.936 383.398H104.045V371.152L101.936 371.582C101.806 371.621 101.676 371.641 101.545 371.641C101.324 371.641 101.142 371.569 100.998 371.426C100.855 371.283 100.784 371.107 100.784 370.898C100.784 370.716 100.836 370.553 100.94 370.41C101.044 370.254 101.207 370.15 101.428 370.098L104.631 369.453C104.814 369.427 104.931 369.414 104.983 369.414C105.465 369.414 105.718 369.668 105.745 370.176L105.842 372.52C106.168 371.882 106.649 371.309 107.287 370.801C107.926 370.28 108.661 369.87 109.495 369.57C110.328 369.271 111.187 369.121 112.073 369.121C113.909 369.121 115.282 369.596 116.194 370.547C117.105 371.497 117.561 372.845 117.561 374.59V383.398H119.69C119.937 383.398 120.126 383.477 120.256 383.633C120.399 383.789 120.471 383.971 120.471 384.18C120.471 384.401 120.399 384.596 120.256 384.766C120.113 384.922 119.911 385 119.651 385H112.912C112.626 385 112.405 384.915 112.248 384.746C112.092 384.577 112.014 384.382 112.014 384.16C112.014 383.952 112.086 383.776 112.229 383.633C112.372 383.477 112.574 383.398 112.834 383.398H115.686ZM129.512 381.484C128.783 380.234 128.418 378.757 128.418 377.051C128.418 375.436 128.809 374.03 129.59 372.832C130.384 371.634 131.452 370.716 132.793 370.078C134.134 369.44 135.618 369.121 137.246 369.121C139.303 369.121 140.937 369.512 142.148 370.293C143.359 371.074 143.965 372.305 143.965 373.984C143.965 374.453 143.861 374.831 143.652 375.117C143.457 375.404 143.171 375.547 142.793 375.547C142.415 375.547 142.155 375.312 142.012 374.844C141.868 374.362 141.732 373.548 141.602 372.402L141.504 371.602C140.853 371.276 140.202 371.048 139.551 370.918C138.913 370.788 138.242 370.723 137.539 370.723C136.029 370.723 134.727 370.977 133.633 371.484C132.552 371.992 131.725 372.721 131.152 373.672C130.579 374.609 130.293 375.736 130.293 377.051C130.293 379.251 130.898 380.918 132.109 382.051C133.333 383.171 134.974 383.73 137.031 383.73C138.229 383.73 139.232 383.568 140.039 383.242C140.846 382.917 141.654 382.383 142.461 381.641C142.682 381.432 142.949 381.328 143.262 381.328C143.457 381.328 143.62 381.393 143.75 381.523C143.88 381.654 143.945 381.855 143.945 382.129C143.945 382.415 143.828 382.689 143.594 382.949C142.917 383.691 141.953 384.277 140.703 384.707C139.466 385.124 138.294 385.332 137.187 385.332C135.456 385.332 133.926 385 132.598 384.336C131.27 383.672 130.241 382.721 129.512 381.484ZM156.326 381.504C155.636 380.28 155.291 378.854 155.291 377.227C155.291 375.586 155.636 374.154 156.326 372.93C157.016 371.706 157.986 370.768 159.236 370.117C160.486 369.453 161.931 369.121 163.572 369.121C165.212 369.121 166.658 369.453 167.908 370.117C169.158 370.768 170.128 371.706 170.818 372.93C171.508 374.154 171.853 375.586 171.853 377.227C171.853 378.854 171.508 380.28 170.818 381.504C170.128 382.728 169.158 383.672 167.908 384.336C166.658 385 165.212 385.332 163.572 385.332C161.931 385.332 160.486 385 159.236 384.336C157.986 383.672 157.016 382.728 156.326 381.504ZM158.123 373.867C157.641 374.844 157.4 375.964 157.4 377.227C157.4 378.503 157.641 379.635 158.123 380.625C158.617 381.602 159.327 382.363 160.252 382.91C161.189 383.457 162.296 383.73 163.572 383.73C164.848 383.73 165.948 383.457 166.873 382.91C167.81 382.363 168.52 381.602 169.002 380.625C169.496 379.635 169.744 378.503 169.744 377.227C169.744 375.964 169.496 374.844 169.002 373.867C168.52 372.878 167.81 372.109 166.873 371.562C165.948 371.003 164.848 370.723 163.572 370.723C162.296 370.723 161.189 371.003 160.252 371.562C159.327 372.109 158.617 372.878 158.123 373.867ZM212.981 380.352C212.656 380.638 212.493 380.951 212.493 381.289C212.493 381.615 212.565 381.895 212.708 382.129C212.851 382.35 213.131 382.533 213.548 382.676C213.977 382.806 214.596 382.871 215.403 382.871H217.22C218.821 382.871 220.11 382.988 221.087 383.223C222.063 383.444 222.812 383.867 223.333 384.492C223.854 385.117 224.114 386.029 224.114 387.227C224.114 388.242 223.736 389.095 222.981 389.785C222.239 390.475 221.256 390.99 220.032 391.328C218.821 391.667 217.519 391.836 216.126 391.836C214.368 391.836 212.929 391.53 211.809 390.918C210.69 390.319 210.13 389.303 210.13 387.871C210.13 386.934 210.345 386.113 210.774 385.41C211.204 384.72 211.764 384.206 212.454 383.867C211.842 383.568 211.38 383.229 211.067 382.852C210.768 382.461 210.618 381.973 210.618 381.387C210.618 380.918 210.774 380.475 211.087 380.059C211.399 379.629 211.777 379.284 212.22 379.023C212.662 378.75 213.072 378.587 213.45 378.535C212.33 378.079 211.49 377.539 210.93 376.914C210.371 376.276 210.091 375.423 210.091 374.355C210.091 373.21 210.371 372.246 210.93 371.465C211.503 370.671 212.265 370.085 213.216 369.707C214.179 369.316 215.24 369.121 216.399 369.121C217.285 369.121 218.131 369.251 218.938 369.512C219.746 369.772 220.455 370.156 221.067 370.664L224.036 368.691C224.843 368.145 225.631 367.871 226.399 367.871C227.154 367.871 227.532 368.203 227.532 368.867C227.532 369.167 227.324 369.408 226.907 369.59C226.503 369.772 225.846 369.863 224.934 369.863L221.634 371.309C222.376 372.233 222.747 373.281 222.747 374.453C222.747 376.159 222.2 377.409 221.106 378.203C220.026 378.997 218.385 379.395 216.184 379.395C215.52 379.395 214.902 379.479 214.329 379.648C213.769 379.818 213.32 380.052 212.981 380.352ZM213.157 377.051C213.964 377.65 214.993 377.949 216.243 377.949C217.61 377.949 218.723 377.695 219.583 377.188C220.442 376.68 220.872 375.807 220.872 374.57C220.872 373.242 220.449 372.272 219.602 371.66C218.756 371.035 217.675 370.723 216.36 370.723C215.071 370.723 214.016 371.029 213.196 371.641C212.376 372.253 211.966 373.177 211.966 374.414C211.966 375.56 212.363 376.439 213.157 377.051ZM220.266 384.551C219.563 384.368 218.567 384.277 217.278 384.277H213.684C213.437 384.368 213.183 384.596 212.923 384.961C212.662 385.312 212.441 385.71 212.259 386.152C212.089 386.608 212.005 387.018 212.005 387.383C212.005 388.464 212.33 389.206 212.981 389.609C213.645 390.026 214.68 390.234 216.087 390.234C217.727 390.234 219.16 390 220.384 389.531C221.621 389.062 222.239 388.32 222.239 387.305C222.239 386.497 222.083 385.879 221.77 385.449C221.471 385.02 220.97 384.72 220.266 384.551ZM238.467 370V379.941C238.467 381.074 238.786 381.992 239.424 382.695C240.075 383.385 241.032 383.73 242.295 383.73C243.064 383.73 243.851 383.587 244.659 383.301C245.466 383.014 246.189 382.624 246.827 382.129C247.478 381.634 247.946 381.087 248.233 380.488V371.211L246.338 371.602C246.221 371.641 246.104 371.66 245.987 371.66C245.713 371.66 245.492 371.576 245.323 371.406C245.153 371.237 245.069 371.042 245.069 370.82C245.069 370.638 245.127 370.482 245.245 370.352C245.375 370.208 245.564 370.111 245.811 370.059L249.209 369.375C249.314 369.349 249.392 369.336 249.444 369.336C249.639 369.336 249.795 369.401 249.912 369.531C250.043 369.661 250.108 369.818 250.108 370V383.34L252.998 383.125H253.116C253.376 383.125 253.571 383.19 253.702 383.32C253.832 383.451 253.897 383.613 253.897 383.809C253.897 384.004 253.832 384.186 253.702 384.355C253.571 384.512 253.389 384.616 253.155 384.668L249.522 385.059H249.385C249.125 385.059 248.91 384.98 248.741 384.824C248.571 384.655 248.48 384.408 248.467 384.082L248.37 382.383C247.797 383.229 246.944 383.932 245.811 384.492C244.678 385.052 243.5 385.332 242.276 385.332C241.104 385.332 240.088 385.104 239.229 384.648C238.37 384.193 237.712 383.555 237.256 382.734C236.814 381.914 236.592 380.964 236.592 379.883V371.211L234.678 371.602C234.6 371.628 234.489 371.641 234.346 371.641C234.086 371.641 233.871 371.556 233.702 371.387C233.532 371.217 233.448 371.022 233.448 370.801C233.448 370.618 233.506 370.462 233.623 370.332C233.741 370.202 233.916 370.111 234.151 370.059L237.569 369.375C237.673 369.349 237.751 369.336 237.803 369.336C237.998 369.336 238.155 369.401 238.272 369.531C238.402 369.661 238.467 369.818 238.467 370ZM263.191 381.484C262.449 380.234 262.078 378.757 262.078 377.051C262.078 375.436 262.462 374.03 263.23 372.832C264.012 371.634 265.053 370.716 266.355 370.078C267.671 369.44 269.122 369.121 270.711 369.121C272.065 369.121 273.27 369.375 274.324 369.883C275.392 370.378 276.225 371.113 276.824 372.09C277.436 373.066 277.742 374.251 277.742 375.645C277.742 376.139 277.605 376.549 277.332 376.875C277.059 377.188 276.694 377.344 276.238 377.344L263.953 377.441C264.018 379.499 264.669 381.061 265.906 382.129C267.143 383.197 268.764 383.73 270.77 383.73C271.746 383.73 272.703 383.555 273.641 383.203C274.591 382.839 275.438 382.305 276.18 381.602C276.453 381.38 276.72 381.27 276.98 381.27C277.215 381.27 277.404 381.354 277.547 381.523C277.69 381.693 277.762 381.895 277.762 382.129C277.762 382.415 277.645 382.689 277.41 382.949C276.733 383.678 275.757 384.258 274.48 384.688C273.217 385.117 272.033 385.332 270.926 385.332C269.181 385.332 267.638 385 266.297 384.336C264.969 383.672 263.934 382.721 263.191 381.484ZM274.871 372.266C274.155 371.237 272.781 370.723 270.75 370.723C268.849 370.723 267.306 371.185 266.121 372.109C264.949 373.034 264.246 374.329 264.012 375.996L276.082 375.918C275.991 374.512 275.587 373.294 274.871 372.266ZM287.095 370.684C287.095 370.15 287.395 369.883 287.994 369.883H294.146C294.654 369.883 294.908 370.156 294.908 370.703C294.908 371.224 294.66 371.484 294.166 371.484H292.037L297.252 383.203L302.017 371.484H300.357C299.849 371.484 299.595 371.224 299.595 370.703C299.595 370.156 299.856 369.883 300.377 369.883H305.474C306.073 369.883 306.373 370.15 306.373 370.684C306.373 371.217 306.099 371.484 305.552 371.484H303.814L298.599 383.945C298.365 384.505 298.143 384.863 297.935 385.02C297.74 385.189 297.492 385.273 297.193 385.273C296.88 385.273 296.607 385.182 296.373 385C296.151 384.831 295.904 384.447 295.63 383.848L289.888 371.484H287.916C287.369 371.484 287.095 371.217 287.095 370.684ZM327.073 375.82V375.43C327.073 373.906 326.774 372.741 326.175 371.934C325.589 371.126 324.567 370.723 323.109 370.723C322.288 370.723 321.533 370.794 320.843 370.938C320.166 371.068 319.482 371.289 318.792 371.602C318.74 372.604 318.623 373.359 318.441 373.867C318.258 374.375 317.946 374.629 317.503 374.629C317.126 374.629 316.833 374.499 316.624 374.238C316.429 373.978 316.331 373.639 316.331 373.223C316.331 372.441 316.618 371.738 317.191 371.113C317.764 370.488 318.564 370 319.593 369.648C320.622 369.297 321.8 369.121 323.128 369.121C324.626 369.121 325.797 369.401 326.644 369.961C327.503 370.521 328.102 371.328 328.441 372.383C328.779 373.424 328.948 374.74 328.948 376.328V382.422C328.948 382.878 329.04 383.19 329.222 383.359C329.404 383.516 329.652 383.594 329.964 383.594C330.303 383.594 330.661 383.496 331.038 383.301C331.416 383.092 331.715 382.871 331.937 382.637C332.08 382.48 332.236 382.402 332.405 382.402C332.601 382.402 332.77 382.487 332.913 382.656C333.056 382.826 333.128 383.014 333.128 383.223C333.128 383.418 333.063 383.581 332.933 383.711C332.516 384.154 332.034 384.505 331.487 384.766C330.954 385.013 330.394 385.137 329.808 385.137C329.144 385.137 328.584 384.98 328.128 384.668C327.672 384.342 327.366 383.717 327.21 382.793C326.572 383.509 325.674 384.108 324.515 384.59C323.369 385.072 322.119 385.312 320.765 385.312C319.306 385.312 318.167 384.915 317.347 384.121C316.527 383.314 316.116 382.24 316.116 380.898C316.116 379.544 316.546 378.522 317.405 377.832C318.265 377.142 319.32 376.686 320.57 376.465C321.833 376.243 323.525 376.061 325.648 375.918L327.073 375.82ZM324.359 383.086C325.465 382.643 326.37 382.051 327.073 381.309V377.168L326.273 377.246C324.137 377.454 322.536 377.656 321.468 377.852C320.413 378.034 319.573 378.359 318.948 378.828C318.323 379.297 318.011 379.987 318.011 380.898C318.011 381.888 318.278 382.611 318.812 383.066C319.359 383.509 320.081 383.73 320.98 383.73C322.139 383.73 323.265 383.516 324.359 383.086ZM356.036 373.828C355.854 373.646 355.762 373.392 355.762 373.066V370.723C354.018 370.723 352.475 371.068 351.134 371.758C349.792 372.435 348.861 373.424 348.341 374.727V383.398H354.903C355.151 383.398 355.339 383.477 355.47 383.633C355.613 383.789 355.684 383.978 355.684 384.199C355.684 384.408 355.613 384.596 355.47 384.766C355.326 384.922 355.131 385 354.884 385H342.97C342.683 385 342.462 384.922 342.305 384.766C342.149 384.596 342.071 384.401 342.071 384.18C342.071 383.971 342.143 383.789 342.286 383.633C342.429 383.477 342.631 383.398 342.891 383.398H346.466V371.152L344.083 371.641C344.031 371.654 343.953 371.66 343.848 371.66C343.601 371.66 343.406 371.582 343.262 371.426C343.132 371.27 343.067 371.087 343.067 370.879C343.067 370.697 343.119 370.54 343.223 370.41C343.328 370.267 343.471 370.176 343.653 370.137L346.993 369.473C347.162 369.434 347.312 369.414 347.442 369.414C347.729 369.414 347.917 369.505 348.009 369.688C348.113 369.87 348.171 370.143 348.184 370.508L348.262 372.539C349.747 370.26 352.299 369.121 355.919 369.121C356.544 369.121 356.986 369.219 357.247 369.414C357.507 369.609 357.637 369.902 357.637 370.293V372.988C357.637 373.34 357.54 373.613 357.345 373.809C357.162 373.991 356.941 374.082 356.68 374.082C356.433 374.082 356.218 373.997 356.036 373.828ZM380.311 375.82V375.43C380.311 373.906 380.011 372.741 379.413 371.934C378.827 371.126 377.804 370.723 376.346 370.723C375.526 370.723 374.771 370.794 374.08 370.938C373.403 371.068 372.72 371.289 372.03 371.602C371.978 372.604 371.86 373.359 371.678 373.867C371.496 374.375 371.183 374.629 370.741 374.629C370.363 374.629 370.07 374.499 369.862 374.238C369.666 373.978 369.569 373.639 369.569 373.223C369.569 372.441 369.855 371.738 370.428 371.113C371.001 370.488 371.802 370 372.83 369.648C373.859 369.297 375.038 369.121 376.366 369.121C377.863 369.121 379.035 369.401 379.881 369.961C380.741 370.521 381.34 371.328 381.678 372.383C382.017 373.424 382.186 374.74 382.186 376.328V382.422C382.186 382.878 382.277 383.19 382.459 383.359C382.642 383.516 382.889 383.594 383.202 383.594C383.54 383.594 383.898 383.496 384.276 383.301C384.653 383.092 384.953 382.871 385.174 382.637C385.317 382.48 385.474 382.402 385.643 382.402C385.838 382.402 386.008 382.487 386.151 382.656C386.294 382.826 386.366 383.014 386.366 383.223C386.366 383.418 386.301 383.581 386.17 383.711C385.754 384.154 385.272 384.505 384.725 384.766C384.191 385.013 383.631 385.137 383.045 385.137C382.381 385.137 381.821 384.98 381.366 384.668C380.91 384.342 380.604 383.717 380.448 382.793C379.81 383.509 378.911 384.108 377.752 384.59C376.607 385.072 375.357 385.312 374.002 385.312C372.544 385.312 371.405 384.915 370.584 384.121C369.764 383.314 369.354 382.24 369.354 380.898C369.354 379.544 369.784 378.522 370.643 377.832C371.502 377.142 372.557 376.686 373.807 376.465C375.07 376.243 376.763 376.061 378.885 375.918L380.311 375.82ZM377.596 383.086C378.703 382.643 379.608 382.051 380.311 381.309V377.168L379.51 377.246C377.375 377.454 375.773 377.656 374.705 377.852C373.651 378.034 372.811 378.359 372.186 378.828C371.561 379.297 371.248 379.987 371.248 380.898C371.248 381.888 371.515 382.611 372.049 383.066C372.596 383.509 373.319 383.73 374.217 383.73C375.376 383.73 376.502 383.516 377.596 383.086Z" fill="#555555"/>
<path d="M187.378 370.391C187.014 369.661 186.831 368.88 186.831 368.047C186.831 367.201 187.027 366.4 187.417 365.645C187.808 364.889 188.374 364.277 189.116 363.809C189.872 363.34 190.77 363.105 191.812 363.105C192.84 363.105 193.719 363.333 194.448 363.789C195.178 364.245 195.724 364.844 196.089 365.586C196.454 366.315 196.636 367.103 196.636 367.949C196.636 368.783 196.447 369.577 196.07 370.332C195.692 371.074 195.126 371.68 194.37 372.148C193.628 372.604 192.743 372.832 191.714 372.832C190.685 372.832 189.8 372.611 189.058 372.168C188.316 371.712 187.756 371.12 187.378 370.391ZM189.722 365.859C189.253 366.432 189.019 367.148 189.019 368.008C189.019 368.542 189.136 369.036 189.37 369.492C189.605 369.935 189.937 370.293 190.366 370.566C190.796 370.827 191.304 370.957 191.89 370.957C192.762 370.957 193.426 370.677 193.882 370.117C194.351 369.557 194.585 368.854 194.585 368.008C194.585 367.148 194.344 366.432 193.862 365.859C193.381 365.286 192.691 365 191.792 365C190.894 365 190.204 365.286 189.722 365.859Z" fill="#F31F1F"/>
<path d="M117.174 423.029H117.105C116.975 423.029 116.868 422.99 116.783 422.912C116.699 422.827 116.653 422.704 116.646 422.541L116.617 421.955C116.318 422.313 115.914 422.606 115.406 422.834C114.905 423.055 114.355 423.166 113.756 423.166C113.007 423.166 112.353 422.993 111.793 422.648C111.24 422.303 110.813 421.825 110.514 421.213C110.214 420.601 110.064 419.901 110.064 419.113C110.064 418.339 110.214 417.645 110.514 417.033C110.813 416.415 111.24 415.933 111.793 415.588C112.353 415.236 113.007 415.061 113.756 415.061C114.348 415.061 114.859 415.148 115.289 415.324C115.725 415.5 116.139 415.757 116.529 416.096V412.346L115.279 412.424C115.253 412.43 115.224 412.437 115.191 412.443C115.159 412.45 115.123 412.453 115.084 412.453C114.973 412.453 114.882 412.417 114.811 412.346C114.739 412.274 114.703 412.186 114.703 412.082C114.703 411.991 114.729 411.906 114.781 411.828C114.833 411.75 114.915 411.701 115.025 411.682L116.871 411.496C116.975 411.483 117.04 411.477 117.066 411.477C117.333 411.477 117.467 411.604 117.467 411.857V422.17L118.912 422.062H118.971C119.101 422.062 119.199 422.095 119.264 422.16C119.329 422.225 119.361 422.307 119.361 422.404C119.361 422.502 119.329 422.593 119.264 422.678C119.199 422.756 119.107 422.808 118.99 422.834L117.174 423.029ZM116.529 417.121C115.859 416.281 114.954 415.861 113.814 415.861C113.215 415.861 112.704 416.008 112.281 416.301C111.858 416.594 111.539 416.988 111.324 417.482C111.109 417.977 111.002 418.521 111.002 419.113C111.002 419.706 111.109 420.249 111.324 420.744C111.539 421.239 111.855 421.633 112.271 421.926C112.688 422.219 113.189 422.365 113.775 422.365C114.954 422.365 115.872 421.893 116.529 420.949V417.121ZM126.471 412.941C126.314 412.785 126.236 412.596 126.236 412.375C126.236 412.147 126.314 411.955 126.471 411.799C126.633 411.643 126.826 411.564 127.047 411.564C127.268 411.564 127.457 411.643 127.613 411.799C127.77 411.955 127.848 412.147 127.848 412.375C127.848 412.596 127.77 412.785 127.613 412.941C127.464 413.098 127.275 413.176 127.047 413.176C126.819 413.176 126.627 413.098 126.471 412.941ZM131.236 422.883C131.165 422.961 131.067 423 130.943 423H123.17C123.027 423 122.916 422.958 122.838 422.873C122.76 422.788 122.721 422.691 122.721 422.58C122.721 422.476 122.757 422.388 122.828 422.316C122.9 422.238 123.001 422.199 123.131 422.199H126.764V415.979L123.512 416.418L123.443 416.428C123.32 416.428 123.222 416.389 123.15 416.311C123.079 416.226 123.043 416.128 123.043 416.018C123.043 415.92 123.069 415.835 123.121 415.764C123.173 415.686 123.251 415.64 123.355 415.627L127.242 415.09C127.262 415.083 127.298 415.08 127.35 415.08C127.454 415.08 127.538 415.109 127.604 415.168C127.669 415.22 127.701 415.295 127.701 415.393V422.199H130.953C131.077 422.199 131.171 422.242 131.236 422.326C131.308 422.404 131.344 422.495 131.344 422.6C131.344 422.71 131.308 422.805 131.236 422.883ZM136.539 420.676C136.376 420.819 136.295 420.975 136.295 421.145C136.295 421.307 136.331 421.447 136.402 421.564C136.474 421.675 136.614 421.766 136.822 421.838C137.037 421.903 137.346 421.936 137.75 421.936H138.658C139.459 421.936 140.104 421.994 140.592 422.111C141.08 422.222 141.454 422.434 141.715 422.746C141.975 423.059 142.105 423.514 142.105 424.113C142.105 424.621 141.917 425.048 141.539 425.393C141.168 425.738 140.676 425.995 140.064 426.164C139.459 426.333 138.808 426.418 138.111 426.418C137.232 426.418 136.513 426.265 135.953 425.959C135.393 425.66 135.113 425.152 135.113 424.436C135.113 423.967 135.221 423.557 135.436 423.205C135.65 422.86 135.93 422.603 136.275 422.434C135.969 422.284 135.738 422.115 135.582 421.926C135.432 421.73 135.357 421.486 135.357 421.193C135.357 420.959 135.436 420.738 135.592 420.529C135.748 420.314 135.937 420.142 136.158 420.012C136.38 419.875 136.585 419.794 136.773 419.768C136.214 419.54 135.794 419.27 135.514 418.957C135.234 418.638 135.094 418.212 135.094 417.678C135.094 417.105 135.234 416.623 135.514 416.232C135.8 415.835 136.181 415.542 136.656 415.354C137.138 415.158 137.669 415.061 138.248 415.061C138.691 415.061 139.114 415.126 139.518 415.256C139.921 415.386 140.276 415.578 140.582 415.832L142.066 414.846C142.47 414.572 142.864 414.436 143.248 414.436C143.626 414.436 143.814 414.602 143.814 414.934C143.814 415.083 143.71 415.204 143.502 415.295C143.3 415.386 142.971 415.432 142.516 415.432L140.865 416.154C141.236 416.617 141.422 417.141 141.422 417.727C141.422 418.579 141.148 419.204 140.602 419.602C140.061 419.999 139.241 420.197 138.141 420.197C137.809 420.197 137.499 420.24 137.213 420.324C136.933 420.409 136.708 420.526 136.539 420.676ZM136.627 419.025C137.031 419.325 137.545 419.475 138.17 419.475C138.854 419.475 139.41 419.348 139.84 419.094C140.27 418.84 140.484 418.404 140.484 417.785C140.484 417.121 140.273 416.636 139.85 416.33C139.426 416.018 138.886 415.861 138.229 415.861C137.584 415.861 137.057 416.014 136.646 416.32C136.236 416.626 136.031 417.089 136.031 417.707C136.031 418.28 136.23 418.719 136.627 419.025ZM140.182 422.775C139.83 422.684 139.332 422.639 138.688 422.639H136.891C136.767 422.684 136.64 422.798 136.51 422.98C136.38 423.156 136.269 423.355 136.178 423.576C136.093 423.804 136.051 424.009 136.051 424.191C136.051 424.732 136.214 425.103 136.539 425.305C136.871 425.513 137.389 425.617 138.092 425.617C138.912 425.617 139.628 425.5 140.24 425.266C140.859 425.031 141.168 424.66 141.168 424.152C141.168 423.749 141.09 423.439 140.934 423.225C140.784 423.01 140.533 422.86 140.182 422.775ZM150.689 412.941C150.533 412.785 150.455 412.596 150.455 412.375C150.455 412.147 150.533 411.955 150.689 411.799C150.852 411.643 151.044 411.564 151.266 411.564C151.487 411.564 151.676 411.643 151.832 411.799C151.988 411.955 152.066 412.147 152.066 412.375C152.066 412.596 151.988 412.785 151.832 412.941C151.682 413.098 151.493 413.176 151.266 413.176C151.038 413.176 150.846 413.098 150.689 412.941ZM155.455 422.883C155.383 422.961 155.286 423 155.162 423H147.389C147.245 423 147.135 422.958 147.057 422.873C146.979 422.788 146.939 422.691 146.939 422.58C146.939 422.476 146.975 422.388 147.047 422.316C147.118 422.238 147.219 422.199 147.35 422.199H150.982V415.979L147.73 416.418L147.662 416.428C147.538 416.428 147.441 416.389 147.369 416.311C147.298 416.226 147.262 416.128 147.262 416.018C147.262 415.92 147.288 415.835 147.34 415.764C147.392 415.686 147.47 415.64 147.574 415.627L151.461 415.09C151.48 415.083 151.516 415.08 151.568 415.08C151.673 415.08 151.757 415.109 151.822 415.168C151.887 415.22 151.92 415.295 151.92 415.393V422.199H155.172C155.296 422.199 155.39 422.242 155.455 422.326C155.527 422.404 155.562 422.495 155.562 422.6C155.562 422.71 155.527 422.805 155.455 422.883ZM165.172 416.242H161.549V421.008C161.549 421.477 161.702 421.822 162.008 422.043C162.32 422.258 162.727 422.365 163.229 422.365C163.684 422.365 164.156 422.287 164.645 422.131C165.139 421.968 165.543 421.77 165.855 421.535C165.882 421.509 165.917 421.496 165.963 421.496C166.054 421.496 166.145 421.551 166.236 421.662C166.327 421.773 166.373 421.883 166.373 421.994C166.373 422.046 166.357 422.095 166.324 422.141C166.188 422.303 165.95 422.466 165.611 422.629C165.279 422.785 164.892 422.912 164.449 423.01C164.007 423.114 163.567 423.166 163.131 423.166C162.688 423.166 162.271 423.085 161.881 422.922C161.497 422.753 161.188 422.528 160.953 422.248C160.725 421.968 160.611 421.669 160.611 421.35V416.242H159.215C159.072 416.242 158.961 416.2 158.883 416.115C158.805 416.031 158.766 415.933 158.766 415.822C158.766 415.718 158.801 415.63 158.873 415.559C158.945 415.48 159.046 415.441 159.176 415.441H160.611C160.611 414.628 160.621 414.045 160.641 413.693C160.66 413.342 160.709 413.085 160.787 412.922C160.872 412.753 161.008 412.668 161.197 412.668C161.34 412.668 161.435 412.707 161.48 412.785C161.526 412.857 161.549 412.964 161.549 413.107V415.441H165.182C165.299 415.441 165.39 415.484 165.455 415.568C165.527 415.646 165.562 415.738 165.562 415.842C165.562 415.952 165.527 416.047 165.455 416.125C165.39 416.203 165.296 416.242 165.172 416.242ZM176.676 418.41V418.215C176.676 417.453 176.526 416.87 176.227 416.467C175.934 416.063 175.423 415.861 174.693 415.861C174.283 415.861 173.906 415.897 173.561 415.969C173.222 416.034 172.88 416.145 172.535 416.301C172.509 416.802 172.451 417.18 172.359 417.434C172.268 417.688 172.112 417.814 171.891 417.814C171.702 417.814 171.555 417.749 171.451 417.619C171.354 417.489 171.305 417.32 171.305 417.111C171.305 416.721 171.448 416.369 171.734 416.057C172.021 415.744 172.421 415.5 172.936 415.324C173.45 415.148 174.039 415.061 174.703 415.061C175.452 415.061 176.038 415.201 176.461 415.48C176.891 415.76 177.19 416.164 177.359 416.691C177.529 417.212 177.613 417.87 177.613 418.664V421.711C177.613 421.939 177.659 422.095 177.75 422.18C177.841 422.258 177.965 422.297 178.121 422.297C178.29 422.297 178.469 422.248 178.658 422.15C178.847 422.046 178.997 421.936 179.107 421.818C179.179 421.74 179.257 421.701 179.342 421.701C179.439 421.701 179.524 421.743 179.596 421.828C179.667 421.913 179.703 422.007 179.703 422.111C179.703 422.209 179.671 422.29 179.605 422.355C179.397 422.577 179.156 422.753 178.883 422.883C178.616 423.007 178.336 423.068 178.043 423.068C177.711 423.068 177.431 422.99 177.203 422.834C176.975 422.671 176.822 422.359 176.744 421.896C176.425 422.255 175.976 422.554 175.396 422.795C174.824 423.036 174.199 423.156 173.521 423.156C172.792 423.156 172.223 422.958 171.812 422.561C171.402 422.157 171.197 421.62 171.197 420.949C171.197 420.272 171.412 419.761 171.842 419.416C172.271 419.071 172.799 418.843 173.424 418.732C174.055 418.622 174.902 418.531 175.963 418.459L176.676 418.41ZM175.318 422.043C175.872 421.822 176.324 421.525 176.676 421.154V419.084L176.275 419.123C175.208 419.227 174.407 419.328 173.873 419.426C173.346 419.517 172.926 419.68 172.613 419.914C172.301 420.148 172.145 420.493 172.145 420.949C172.145 421.444 172.278 421.805 172.545 422.033C172.818 422.255 173.18 422.365 173.629 422.365C174.208 422.365 174.771 422.258 175.318 422.043ZM187.398 411.467L187.506 411.457C187.61 411.457 187.695 411.486 187.76 411.545C187.825 411.597 187.857 411.672 187.857 411.77V422.199H191.178C191.295 422.199 191.386 422.242 191.451 422.326C191.523 422.404 191.559 422.495 191.559 422.6C191.559 422.71 191.523 422.805 191.451 422.883C191.386 422.961 191.292 423 191.168 423H183.355C183.212 423 183.102 422.961 183.023 422.883C182.945 422.798 182.906 422.701 182.906 422.59C182.906 422.486 182.942 422.395 183.014 422.316C183.085 422.238 183.186 422.199 183.316 422.199H186.92V412.355L183.473 412.629L183.404 412.639C183.281 412.639 183.183 412.6 183.111 412.521C183.04 412.437 183.004 412.339 183.004 412.229C183.004 412.131 183.03 412.046 183.082 411.975C183.134 411.896 183.212 411.851 183.316 411.838L187.398 411.467ZM218.229 411.496C218.333 411.483 218.398 411.477 218.424 411.477C218.691 411.477 218.824 411.604 218.824 411.857V416.096C219.215 415.757 219.625 415.5 220.055 415.324C220.491 415.148 221.005 415.061 221.598 415.061C222.346 415.061 222.997 415.236 223.551 415.588C224.111 415.933 224.54 416.415 224.84 417.033C225.139 417.645 225.289 418.339 225.289 419.113C225.289 419.901 225.143 420.601 224.85 421.213C224.557 421.825 224.133 422.303 223.58 422.648C223.033 422.993 222.385 423.166 221.637 423.166C221.051 423.166 220.514 423.059 220.025 422.844C219.537 422.629 219.124 422.349 218.785 422.004C218.785 422.316 218.762 422.548 218.717 422.697C218.671 422.847 218.613 422.941 218.541 422.98C218.476 423.02 218.391 423.039 218.287 423.039C218.163 423.039 218.066 422.987 217.994 422.883C217.923 422.779 217.887 422.577 217.887 422.277V412.346L216.637 412.424C216.611 412.43 216.581 412.437 216.549 412.443C216.516 412.45 216.48 412.453 216.441 412.453C216.331 412.453 216.24 412.417 216.168 412.346C216.096 412.274 216.061 412.186 216.061 412.082C216.061 411.991 216.087 411.906 216.139 411.828C216.191 411.75 216.272 411.701 216.383 411.682L218.229 411.496ZM219.977 421.984C220.445 422.238 220.992 422.365 221.617 422.365C222.203 422.365 222.701 422.219 223.111 421.926C223.521 421.633 223.831 421.242 224.039 420.754C224.247 420.259 224.352 419.712 224.352 419.113C224.352 418.521 224.244 417.977 224.029 417.482C223.814 416.988 223.495 416.594 223.072 416.301C222.649 416.008 222.138 415.861 221.539 415.861C220.4 415.861 219.495 416.281 218.824 417.121V420.949C219.13 421.385 219.514 421.73 219.977 421.984ZM229.791 421.242C229.42 420.617 229.234 419.878 229.234 419.025C229.234 418.218 229.426 417.515 229.811 416.916C230.201 416.317 230.722 415.858 231.373 415.539C232.031 415.22 232.757 415.061 233.551 415.061C234.228 415.061 234.83 415.188 235.357 415.441C235.891 415.689 236.308 416.057 236.607 416.545C236.913 417.033 237.066 417.626 237.066 418.322C237.066 418.57 236.998 418.775 236.861 418.938C236.725 419.094 236.542 419.172 236.314 419.172L230.172 419.221C230.204 420.249 230.53 421.031 231.148 421.564C231.767 422.098 232.577 422.365 233.58 422.365C234.068 422.365 234.547 422.277 235.016 422.102C235.491 421.919 235.914 421.652 236.285 421.301C236.422 421.19 236.555 421.135 236.686 421.135C236.803 421.135 236.897 421.177 236.969 421.262C237.04 421.346 237.076 421.447 237.076 421.564C237.076 421.708 237.018 421.844 236.9 421.975C236.562 422.339 236.074 422.629 235.436 422.844C234.804 423.059 234.212 423.166 233.658 423.166C232.786 423.166 232.014 423 231.344 422.668C230.68 422.336 230.162 421.861 229.791 421.242ZM235.631 416.633C235.273 416.118 234.586 415.861 233.57 415.861C232.62 415.861 231.848 416.092 231.256 416.555C230.67 417.017 230.318 417.665 230.201 418.498L236.236 418.459C236.191 417.756 235.989 417.147 235.631 416.633ZM242.613 418.566C242.255 418.254 242.076 417.824 242.076 417.277C242.076 416.477 242.376 415.907 242.975 415.568C243.58 415.23 244.329 415.061 245.221 415.061C245.787 415.061 246.334 415.148 246.861 415.324C247.389 415.493 247.75 415.705 247.945 415.959V415.598C247.939 415.448 247.978 415.331 248.062 415.246C248.147 415.155 248.245 415.109 248.355 415.109C248.466 415.109 248.561 415.152 248.639 415.236C248.717 415.321 248.756 415.438 248.756 415.588L248.736 417.551C248.723 417.674 248.688 417.766 248.629 417.824C248.57 417.883 248.476 417.912 248.346 417.912C248.183 417.912 248.079 417.85 248.033 417.727C247.988 417.603 247.962 417.388 247.955 417.082C247.779 416.672 247.444 416.366 246.949 416.164C246.461 415.962 245.862 415.861 245.152 415.861C243.772 415.861 243.082 416.285 243.082 417.131C243.082 417.43 243.173 417.674 243.355 417.863C243.538 418.046 243.86 418.189 244.322 418.293L246.852 418.801C247.483 418.924 247.968 419.149 248.307 419.475C248.652 419.8 248.824 420.298 248.824 420.969C248.824 421.698 248.535 422.248 247.955 422.619C247.382 422.984 246.611 423.166 245.641 423.166C245.029 423.166 244.459 423.075 243.932 422.893C243.411 422.71 242.971 422.414 242.613 422.004V422.59C242.613 422.727 242.577 422.831 242.506 422.902C242.441 422.967 242.359 423 242.262 423C242.158 423 242.066 422.964 241.988 422.893C241.91 422.821 241.871 422.73 241.871 422.619L241.891 420.412C241.891 420.243 241.926 420.116 241.998 420.031C242.07 419.947 242.151 419.904 242.242 419.904C242.353 419.904 242.438 419.937 242.496 420.002C242.561 420.067 242.594 420.204 242.594 420.412C242.594 420.777 242.724 421.109 242.984 421.408C243.251 421.708 243.613 421.942 244.068 422.111C244.524 422.281 245.029 422.365 245.582 422.365C246.324 422.365 246.891 422.251 247.281 422.023C247.678 421.789 247.877 421.434 247.877 420.959C247.877 420.627 247.789 420.36 247.613 420.158C247.438 419.95 247.141 419.807 246.725 419.729L244.127 419.221C243.476 419.097 242.971 418.879 242.613 418.566ZM254.869 415.207C255.11 415.207 255.237 415.334 255.25 415.588L255.279 416.262C255.624 415.91 256.044 415.624 256.539 415.402C257.034 415.174 257.571 415.061 258.15 415.061C258.899 415.061 259.547 415.233 260.094 415.578C260.647 415.923 261.07 416.402 261.363 417.014C261.656 417.626 261.803 418.326 261.803 419.113C261.803 419.888 261.653 420.585 261.354 421.203C261.054 421.815 260.624 422.297 260.064 422.648C259.511 422.993 258.86 423.166 258.111 423.166C257.519 423.166 257.005 423.078 256.568 422.902C256.139 422.727 255.729 422.469 255.338 422.131V425.812H257.447C257.577 425.812 257.678 425.848 257.75 425.92C257.822 425.998 257.857 426.089 257.857 426.193C257.857 426.304 257.818 426.402 257.74 426.486C257.662 426.571 257.551 426.613 257.408 426.613H253.541C253.411 426.613 253.31 426.571 253.238 426.486C253.167 426.408 253.131 426.314 253.131 426.203C253.131 426.099 253.163 426.008 253.229 425.93C253.3 425.852 253.398 425.812 253.521 425.812H254.4V416.086L253.346 416.291C253.32 416.298 253.29 416.304 253.258 416.311C253.225 416.317 253.189 416.32 253.15 416.32C253.04 416.32 252.949 416.285 252.877 416.213C252.805 416.141 252.77 416.053 252.77 415.949C252.77 415.858 252.796 415.777 252.848 415.705C252.9 415.627 252.981 415.575 253.092 415.549L254.693 415.227C254.785 415.214 254.843 415.207 254.869 415.207ZM255.338 421.105C256.008 421.945 256.913 422.365 258.053 422.365C258.652 422.365 259.163 422.219 259.586 421.926C260.009 421.633 260.328 421.239 260.543 420.744C260.758 420.249 260.865 419.706 260.865 419.113C260.865 418.514 260.761 417.971 260.553 417.482C260.344 416.988 260.035 416.594 259.625 416.301C259.215 416.008 258.717 415.861 258.131 415.861C257.506 415.861 256.959 415.988 256.49 416.242C256.028 416.496 255.644 416.841 255.338 417.277V421.105ZM265.924 421.252C265.579 420.64 265.406 419.927 265.406 419.113C265.406 418.293 265.579 417.577 265.924 416.965C266.269 416.353 266.754 415.884 267.379 415.559C268.004 415.227 268.727 415.061 269.547 415.061C270.367 415.061 271.09 415.227 271.715 415.559C272.34 415.884 272.825 416.353 273.17 416.965C273.515 417.577 273.688 418.293 273.688 419.113C273.688 419.927 273.515 420.64 273.17 421.252C272.825 421.864 272.34 422.336 271.715 422.668C271.09 423 270.367 423.166 269.547 423.166C268.727 423.166 268.004 423 267.379 422.668C266.754 422.336 266.269 421.864 265.924 421.252ZM266.822 417.434C266.581 417.922 266.461 418.482 266.461 419.113C266.461 419.751 266.581 420.318 266.822 420.812C267.07 421.301 267.424 421.682 267.887 421.955C268.355 422.229 268.909 422.365 269.547 422.365C270.185 422.365 270.735 422.229 271.197 421.955C271.666 421.682 272.021 421.301 272.262 420.812C272.509 420.318 272.633 419.751 272.633 419.113C272.633 418.482 272.509 417.922 272.262 417.434C272.021 416.939 271.666 416.555 271.197 416.281C270.735 416.001 270.185 415.861 269.547 415.861C268.909 415.861 268.355 416.001 267.887 416.281C267.424 416.555 267.07 416.939 266.822 417.434ZM280.035 411.545C280.1 411.597 280.133 411.672 280.133 411.77V419.104L283.873 416.242H282.867C282.737 416.242 282.636 416.203 282.564 416.125C282.493 416.047 282.457 415.952 282.457 415.842C282.457 415.731 282.496 415.637 282.574 415.559C282.652 415.474 282.763 415.432 282.906 415.432H286.002C286.132 415.432 286.23 415.474 286.295 415.559C286.367 415.643 286.402 415.751 286.402 415.881C286.402 415.972 286.363 416.057 286.285 416.135C286.207 416.206 286.116 416.242 286.012 416.242H285.143L282.047 418.645L285.377 422.199H286.227C286.35 422.199 286.445 422.242 286.51 422.326C286.581 422.404 286.617 422.495 286.617 422.6C286.617 422.71 286.581 422.805 286.51 422.883C286.445 422.961 286.35 423 286.227 423H283.17C283.04 423 282.939 422.961 282.867 422.883C282.796 422.798 282.76 422.704 282.76 422.6C282.76 422.489 282.799 422.395 282.877 422.316C282.955 422.238 283.066 422.199 283.209 422.199H284.283L281.363 419.094L280.133 419.992V422.199H280.826C280.943 422.199 281.035 422.242 281.1 422.326C281.171 422.404 281.207 422.495 281.207 422.6C281.207 422.71 281.171 422.805 281.1 422.883C281.035 422.961 280.94 423 280.816 423H277.555C277.418 423 277.307 422.961 277.223 422.883C277.145 422.798 277.105 422.701 277.105 422.59C277.105 422.486 277.141 422.395 277.213 422.316C277.285 422.238 277.385 422.199 277.516 422.199H279.195V412.434L277.535 412.668C277.516 412.674 277.493 412.678 277.467 412.678C277.343 412.678 277.245 412.639 277.174 412.561C277.102 412.476 277.066 412.378 277.066 412.268C277.066 412.17 277.092 412.085 277.145 412.014C277.197 411.936 277.275 411.89 277.379 411.877L279.664 411.467L279.781 411.457C279.885 411.457 279.97 411.486 280.035 411.545ZM290.338 421.242C289.967 420.617 289.781 419.878 289.781 419.025C289.781 418.218 289.973 417.515 290.357 416.916C290.748 416.317 291.269 415.858 291.92 415.539C292.577 415.22 293.303 415.061 294.098 415.061C294.775 415.061 295.377 415.188 295.904 415.441C296.438 415.689 296.855 416.057 297.154 416.545C297.46 417.033 297.613 417.626 297.613 418.322C297.613 418.57 297.545 418.775 297.408 418.938C297.271 419.094 297.089 419.172 296.861 419.172L290.719 419.221C290.751 420.249 291.077 421.031 291.695 421.564C292.314 422.098 293.124 422.365 294.127 422.365C294.615 422.365 295.094 422.277 295.562 422.102C296.038 421.919 296.461 421.652 296.832 421.301C296.969 421.19 297.102 421.135 297.232 421.135C297.35 421.135 297.444 421.177 297.516 421.262C297.587 421.346 297.623 421.447 297.623 421.564C297.623 421.708 297.564 421.844 297.447 421.975C297.109 422.339 296.62 422.629 295.982 422.844C295.351 423.059 294.758 423.166 294.205 423.166C293.333 423.166 292.561 423 291.891 422.668C291.227 422.336 290.709 421.861 290.338 421.242ZM296.178 416.633C295.82 416.118 295.133 415.861 294.117 415.861C293.167 415.861 292.395 416.092 291.803 416.555C291.217 417.017 290.865 417.665 290.748 418.498L296.783 418.459C296.738 417.756 296.536 417.147 296.178 416.633Z" fill="#555555"/>
</svg>
