<svg width="475" height="475" viewBox="0 0 475 475" fill="none" xmlns="http://www.w3.org/2000/svg">
<path d="M349.712 357.765C353.92 357.76 356.612 353.384 356.625 349.526C356.761 272.973 356.898 196.42 357.042 119.86C357.042 119.695 356.975 119.628 356.968 119.472C356.976 118.852 356.88 118.323 356.664 117.853C356.59 117.689 356.5 117.584 356.403 117.458C356.21 117.189 355.994 116.958 355.695 116.794C355.531 116.72 355.36 116.683 355.173 116.646C354.882 116.564 354.674 116.4 354.301 116.401C277.755 116.542 201.202 116.677 124.641 116.818C120.433 116.824 117.741 121.2 117.728 125.058C117.592 201.611 117.455 278.164 117.319 354.717C117.317 356.149 118.381 358.17 120.053 358.168C196.598 358.041 273.159 357.9 349.712 357.765ZM347.958 346.463C346.197 346.644 342.868 346.857 336.773 346.096C300.29 341.561 260.205 346.231 223.44 346.3C202.867 346.333 152.844 355.843 131.349 347.856C150.252 328.953 169.163 310.043 188.067 291.14C219.661 291.085 251.24 291.031 282.834 290.976C286.476 290.971 289.423 285.729 289.427 282.55C289.489 251.575 289.537 220.6 289.599 189.625C308.861 170.364 328.124 151.102 347.386 131.841C347.274 194.686 347.163 257.531 347.044 320.369C347.027 327.615 348.752 338.142 347.958 346.463ZM193.526 195.075C220.614 195.026 247.708 194.984 274.795 194.935C247.285 222.445 219.774 249.955 192.263 277.465C192.141 267.645 193.446 240.198 193.46 234.683C193.485 221.483 193.509 208.283 193.526 195.075ZM280.97 198.24C280.92 225.327 280.877 252.422 280.827 279.509C267.895 279.533 254.971 279.549 242.047 279.58C235.704 279.589 208.972 281.831 197.6 281.622C225.388 253.82 253.182 226.026 280.97 198.24ZM127.079 285.651C127.155 244.498 127.223 203.352 127.299 162.199C127.321 150.506 127.105 138.798 127.352 127.105C128.575 127.506 130.104 127.96 132.223 128.494C168.349 137.604 218.812 128.34 256.048 128.278C284.568 128.227 313.087 128.176 341.607 128.125C323.167 146.564 304.727 165.004 286.287 183.444C254.693 183.498 223.113 183.553 191.519 183.608C187.878 183.613 184.938 188.848 184.927 192.034C184.864 223.009 184.816 253.984 184.754 284.959C165.32 304.392 145.894 323.818 126.46 343.251C126.598 340.415 127.094 337.116 126.977 335.714C125.565 319.314 127.043 302.112 127.079 285.651Z" fill="#555555"/>
<path d="M58.7725 263V228.844C58.7725 224.698 59.9913 221.562 62.4288 219.437C64.8663 217.312 68.1475 216.25 72.2725 216.25C73.1475 216.25 73.96 216.302 74.71 216.406C75.46 216.51 76.21 216.646 76.96 216.812L76.5538 224.344C76.1788 224.281 75.7621 224.208 75.3038 224.125C74.8663 224.042 74.3663 224 73.8038 224C72.2413 224 71.0329 224.49 70.1788 225.469C69.3454 226.427 68.9288 227.979 68.9288 230.125V235.312L69.0538 235.719V263H58.7725ZM54.2413 240.844V233.375H61.0538H61.8038H74.7725V240.844H54.2413ZM73.745 263V233.375H84.12L84.1825 237.281H84.245C85.0367 235.969 86.0679 234.896 87.3388 234.062C88.6304 233.208 90.0888 232.781 91.7138 232.781C92.2971 232.781 92.8492 232.823 93.37 232.906C93.9117 232.99 94.2867 233.073 94.495 233.156V241C94.12 240.854 93.6617 240.75 93.12 240.687C92.5992 240.604 92.0158 240.562 91.37 240.562C90.0158 240.562 88.6929 241 87.4013 241.875C86.1096 242.729 85.0992 243.854 84.37 245.25V263H73.745ZM91.53 254.437C91.53 251.396 92.7383 249 95.155 247.25C97.5717 245.5 100.749 244.625 104.686 244.625H111.811V242.812C111.811 241.458 111.488 240.417 110.843 239.687C110.197 238.958 109.103 238.594 107.561 238.594C106.061 238.594 104.936 238.906 104.186 239.531C103.436 240.156 103.061 241.01 103.061 242.094V242.719L93.4363 242.687V241.969C93.4363 239.156 94.7696 236.885 97.4363 235.156C100.103 233.427 103.718 232.562 108.28 232.562C112.884 232.562 116.353 233.406 118.686 235.094C121.04 236.76 122.218 239.448 122.218 243.156V256.219C122.218 257.448 122.322 258.615 122.53 259.719C122.738 260.802 123.051 261.75 123.468 262.562V263H113.218C112.905 262.479 112.655 261.865 112.468 261.156C112.301 260.448 112.176 259.719 112.093 258.969C111.405 260.115 110.176 261.156 108.405 262.094C106.655 263.01 104.468 263.469 101.843 263.469C98.6967 263.469 96.1863 262.708 94.3113 261.187C92.4571 259.667 91.53 257.417 91.53 254.437ZM101.811 253.656C101.811 254.906 102.165 255.865 102.874 256.531C103.603 257.198 104.665 257.531 106.061 257.531C107.561 257.531 108.895 257.01 110.061 255.969C111.228 254.906 111.811 253.698 111.811 252.344V249.937H107.686C105.686 249.937 104.207 250.229 103.249 250.812C102.29 251.375 101.811 252.323 101.811 253.656ZM124.253 263V233.375H134.44L134.503 237.281H134.596C135.346 235.885 136.534 234.76 138.159 233.906C139.784 233.052 141.742 232.625 144.034 232.625C147.096 232.625 149.575 233.469 151.471 235.156C153.367 236.844 154.315 239.677 154.315 243.656V263H143.94V245.125C143.94 243.396 143.575 242.167 142.846 241.437C142.117 240.708 141.086 240.344 139.753 240.344C138.628 240.344 137.617 240.687 136.721 241.375C135.825 242.042 135.128 242.937 134.628 244.062V263H124.253ZM154.6 248.625V247.594C154.6 242.885 156.038 239.187 158.913 236.5C161.788 233.792 165.663 232.437 170.538 232.437C175.35 232.437 179.048 233.49 181.631 235.594C184.215 237.677 185.59 240.594 185.756 244.344L185.788 245H175.725V244.625C175.725 243.146 175.308 241.979 174.475 241.125C173.663 240.25 172.444 239.812 170.819 239.812C168.965 239.812 167.548 240.458 166.569 241.75C165.59 243.021 165.1 244.844 165.1 247.219V248.969C165.1 251.302 165.579 253.146 166.538 254.5C167.496 255.833 168.913 256.5 170.788 256.5C172.496 256.5 173.746 256.062 174.538 255.187C175.35 254.312 175.767 253.167 175.788 251.75V251.344H185.788V252C185.725 255.646 184.381 258.521 181.756 260.625C179.152 262.729 175.433 263.781 170.6 263.781C165.746 263.781 161.86 262.427 158.944 259.719C156.048 257.01 154.6 253.312 154.6 248.625ZM184.635 248.625V247.594C184.635 243.052 186.145 239.396 189.166 236.625C192.187 233.833 196.187 232.437 201.166 232.437C206.145 232.437 210.145 233.833 213.166 236.625C216.187 239.396 217.698 243.052 217.698 247.594V248.625C217.698 253.208 216.187 256.885 213.166 259.656C210.145 262.406 206.145 263.781 201.166 263.781C196.166 263.781 192.156 262.406 189.135 259.656C186.135 256.885 184.635 253.208 184.635 248.625ZM195.135 247.219V248.969C195.135 251.24 195.645 253.052 196.666 254.406C197.687 255.76 199.177 256.437 201.135 256.437C203.114 256.437 204.614 255.76 205.635 254.406C206.656 253.052 207.166 251.24 207.166 248.969V247.219C207.166 244.969 206.645 243.187 205.604 241.875C204.583 240.542 203.093 239.875 201.135 239.875C199.198 239.875 197.708 240.542 196.666 241.875C195.645 243.187 195.135 244.969 195.135 247.219ZM238.268 273.406L240.424 266.531C241.299 267.24 242.705 267.948 244.643 268.656C246.601 269.365 248.559 269.719 250.518 269.719C252.559 269.719 254.372 269.125 255.955 267.937C257.559 266.75 258.361 264.719 258.361 261.844V259.156C257.465 260.427 256.288 261.458 254.83 262.25C253.372 263.042 251.445 263.437 249.049 263.437C245.34 263.437 242.361 262.073 240.111 259.344C237.882 256.594 236.768 253.031 236.768 248.656V247.656C236.768 243.281 237.84 239.708 239.986 236.937C242.153 234.146 245.174 232.75 249.049 232.75C251.049 232.75 252.882 233.167 254.549 234C256.215 234.833 257.455 235.885 258.268 237.156H258.361L258.424 233.375H268.58V260.219C268.58 265.594 267.111 269.698 264.174 272.531C261.236 275.385 257.278 276.812 252.299 276.812C249.382 276.812 246.715 276.469 244.299 275.781C241.882 275.115 239.872 274.323 238.268 273.406ZM247.111 248.656C247.111 250.948 247.58 252.812 248.518 254.25C249.455 255.667 250.913 256.375 252.893 256.375C254.205 256.375 255.33 255.99 256.268 255.219C257.205 254.448 257.872 253.573 258.268 252.594V243.719C257.851 242.677 257.174 241.781 256.236 241.031C255.32 240.281 254.195 239.906 252.861 239.906C250.903 239.906 249.455 240.635 248.518 242.094C247.58 243.552 247.111 245.417 247.111 247.687V248.656ZM270.303 252.594V233.375H280.709V251.375C280.709 253.146 281.073 254.385 281.803 255.094C282.532 255.802 283.553 256.156 284.865 256.156C286.011 256.156 287.021 255.802 287.896 255.094C288.771 254.385 289.459 253.49 289.959 252.406V233.375H300.365V263H290.209L290.115 259.062H290.053C289.24 260.458 288.021 261.594 286.396 262.469C284.771 263.323 282.813 263.75 280.521 263.75C277.48 263.75 275.011 262.885 273.115 261.156C271.24 259.427 270.303 256.573 270.303 252.594ZM300.9 248.594V247.594C300.9 242.99 302.358 239.323 305.275 236.594C308.213 233.844 312.119 232.469 316.994 232.469C321.785 232.469 325.483 233.781 328.088 236.406C330.713 239.031 332.025 242.635 332.025 247.219V250.156H306.65V244.812H321.994V244.5C321.994 243.104 321.567 241.948 320.713 241.031C319.879 240.115 318.608 239.656 316.9 239.656C315.046 239.656 313.629 240.323 312.65 241.656C311.692 242.99 311.213 244.635 311.213 246.594V248.75C311.213 251.229 311.733 253.146 312.775 254.5C313.838 255.854 315.358 256.531 317.338 256.531C318.775 256.531 319.983 256.229 320.963 255.625C321.963 255 322.733 254.198 323.275 253.219L331.775 255.906C330.796 258.344 329.14 260.271 326.806 261.687C324.473 263.083 321.348 263.781 317.431 263.781C312.202 263.781 308.14 262.427 305.244 259.719C302.348 256.99 300.9 253.281 300.9 248.594ZM328.747 233.375H338.872L344.591 249.625C344.779 250.187 344.945 250.74 345.091 251.281C345.258 251.823 345.383 252.281 345.466 252.656H345.622C345.706 252.281 345.82 251.833 345.966 251.312C346.133 250.771 346.3 250.208 346.466 249.625L352.341 233.375H361.685L350.247 263H340.31L328.747 233.375ZM357.783 254.437C357.783 251.396 358.991 249 361.408 247.25C363.824 245.5 367.001 244.625 370.939 244.625H378.064V242.812C378.064 241.458 377.741 240.417 377.095 239.687C376.449 238.958 375.355 238.594 373.814 238.594C372.314 238.594 371.189 238.906 370.439 239.531C369.689 240.156 369.314 241.01 369.314 242.094V242.719L359.689 242.687V241.969C359.689 239.156 361.022 236.885 363.689 235.156C366.355 233.427 369.97 232.562 374.533 232.562C379.137 232.562 382.605 233.406 384.939 235.094C387.293 236.76 388.47 239.448 388.47 243.156V256.219C388.47 257.448 388.574 258.615 388.783 259.719C388.991 260.802 389.303 261.75 389.72 262.562V263H379.47C379.158 262.479 378.908 261.865 378.72 261.156C378.553 260.448 378.428 259.719 378.345 258.969C377.658 260.115 376.428 261.156 374.658 262.094C372.908 263.01 370.72 263.469 368.095 263.469C364.949 263.469 362.439 262.708 360.564 261.187C358.71 259.667 357.783 257.417 357.783 254.437ZM368.064 253.656C368.064 254.906 368.418 255.865 369.126 256.531C369.855 257.198 370.918 257.531 372.314 257.531C373.814 257.531 375.147 257.01 376.314 255.969C377.48 254.906 378.064 253.698 378.064 252.344V249.937H373.939C371.939 249.937 370.46 250.229 369.501 250.812C368.543 251.375 368.064 252.323 368.064 253.656ZM390.505 263V233.375H400.88L400.943 237.281H401.005C401.797 235.969 402.828 234.896 404.099 234.062C405.39 233.208 406.849 232.781 408.474 232.781C409.057 232.781 409.609 232.823 410.13 232.906C410.672 232.99 411.047 233.073 411.255 233.156V241C410.88 240.854 410.422 240.75 409.88 240.687C409.359 240.604 408.776 240.562 408.13 240.562C406.776 240.562 405.453 241 404.161 241.875C402.87 242.729 401.859 243.854 401.13 245.25V263H390.505ZM408.29 254.437C408.29 251.396 409.498 249 411.915 247.25C414.332 245.5 417.509 244.625 421.446 244.625H428.571V242.812C428.571 241.458 428.248 240.417 427.602 239.687C426.957 238.958 425.863 238.594 424.321 238.594C422.821 238.594 421.696 238.906 420.946 239.531C420.196 240.156 419.821 241.01 419.821 242.094V242.719L410.196 242.687V241.969C410.196 239.156 411.53 236.885 414.196 235.156C416.863 233.427 420.477 232.562 425.04 232.562C429.644 232.562 433.113 233.406 435.446 235.094C437.8 236.76 438.977 239.448 438.977 243.156V256.219C438.977 257.448 439.082 258.615 439.29 259.719C439.498 260.802 439.811 261.75 440.227 262.562V263H429.977C429.665 262.479 429.415 261.865 429.227 261.156C429.061 260.448 428.936 259.719 428.852 258.969C428.165 260.115 426.936 261.156 425.165 262.094C423.415 263.01 421.227 263.469 418.602 263.469C415.457 263.469 412.946 262.708 411.071 261.187C409.217 259.667 408.29 257.417 408.29 254.437ZM418.571 253.656C418.571 254.906 418.925 255.865 419.634 256.531C420.363 257.198 421.425 257.531 422.821 257.531C424.321 257.531 425.655 257.01 426.821 255.969C427.988 254.906 428.571 253.698 428.571 252.344V249.937H424.446C422.446 249.937 420.967 250.229 420.009 250.812C419.05 251.375 418.571 252.323 418.571 253.656Z" fill="white"/>
<path d="M218.389 226.187C218.389 223.708 219.264 221.573 221.014 219.781C222.785 217.99 224.889 217.094 227.326 217.094C229.722 217.094 231.785 217.99 233.514 219.781C235.243 221.573 236.108 223.708 236.108 226.187C236.108 228.687 235.243 230.812 233.514 232.562C231.785 234.312 229.722 235.187 227.326 235.187C224.889 235.187 222.785 234.312 221.014 232.562C219.264 230.812 218.389 228.687 218.389 226.187ZM223.67 226.187C223.67 227.208 224.024 228.062 224.733 228.75C225.441 229.437 226.295 229.781 227.295 229.781C228.295 229.781 229.128 229.437 229.795 228.75C230.483 228.062 230.826 227.208 230.826 226.187C230.826 225.146 230.483 224.271 229.795 223.562C229.128 222.833 228.295 222.469 227.295 222.469C226.295 222.469 225.441 222.833 224.733 223.562C224.024 224.271 223.67 225.146 223.67 226.187Z" fill="#F31F1F"/>
<path d="M64.5694 288.266C63.3506 288.266 62.2985 287.99 61.4131 287.437C60.5277 286.875 59.8454 286.109 59.3663 285.141C58.8975 284.161 58.6631 283.042 58.6631 281.781C58.6631 280.542 58.9027 279.432 59.3819 278.453C59.861 277.474 60.5381 276.703 61.4131 276.141C62.2985 275.578 63.3506 275.297 64.5694 275.297C65.5798 275.297 66.4288 275.448 67.1163 275.75C67.8038 276.052 68.434 276.453 69.0069 276.953V270.953L66.6944 271.125C66.5069 271.135 66.3558 271.078 66.2413 270.953C66.1371 270.828 66.085 270.687 66.085 270.531C66.085 270.406 66.1267 270.276 66.21 270.141C66.3038 269.995 66.4704 269.911 66.71 269.891L69.8038 269.562C70.0642 269.542 70.2465 269.594 70.3506 269.719C70.4548 269.844 70.5069 269.995 70.5069 270.172V286.672L72.9131 286.5C73.1319 286.5 73.2881 286.557 73.3819 286.672C73.486 286.776 73.5381 286.901 73.5381 287.047C73.5381 287.193 73.486 287.339 73.3819 287.484C73.2881 287.63 73.1423 287.714 72.9444 287.734L69.9288 288.047C69.4808 288.047 69.2413 287.786 69.21 287.266L69.1475 286.328C68.6892 286.88 68.059 287.344 67.2569 287.719C66.4548 288.083 65.559 288.266 64.5694 288.266ZM64.6006 286.984C65.6527 286.984 66.5381 286.771 67.2569 286.344C67.9756 285.906 68.559 285.365 69.0069 284.719V278.594C68.5173 277.979 67.9183 277.49 67.21 277.125C66.5017 276.76 65.6527 276.578 64.6631 276.578C63.6735 276.578 62.8402 276.823 62.1631 277.312C61.4965 277.792 60.9965 278.427 60.6631 279.219C60.3298 280 60.1631 280.854 60.1631 281.781C60.1631 282.708 60.3298 283.568 60.6631 284.359C61.0069 285.151 61.5069 285.786 62.1631 286.266C62.8194 286.745 63.6319 286.984 64.6006 286.984ZM92.555 272.281C92.2008 272.281 91.8935 272.156 91.6331 271.906C91.3831 271.656 91.2581 271.354 91.2581 271C91.2581 270.635 91.3831 270.328 91.6331 270.078C91.8935 269.828 92.2008 269.703 92.555 269.703C92.9196 269.703 93.2217 269.828 93.4613 270.078C93.7113 270.328 93.8363 270.635 93.8363 271C93.8363 271.354 93.7113 271.656 93.4613 271.906C93.2217 272.156 92.9196 272.281 92.555 272.281ZM86.3519 288C86.1123 288 85.93 287.932 85.805 287.797C85.6904 287.651 85.6331 287.495 85.6331 287.328C85.6331 287.172 85.6852 287.031 85.7894 286.906C85.904 286.781 86.0706 286.719 86.2894 286.719H92.1019V276.766L86.8988 277.469C86.8779 277.469 86.8571 277.474 86.8363 277.484C86.8258 277.484 86.8102 277.484 86.7894 277.484C86.581 277.484 86.4196 277.417 86.305 277.281C86.2008 277.146 86.1488 276.995 86.1488 276.828C86.1488 276.682 86.1904 276.547 86.2738 276.422C86.3571 276.297 86.4821 276.224 86.6488 276.203L92.8675 275.344C92.8988 275.333 92.956 275.328 93.0394 275.328C93.4144 275.328 93.6019 275.495 93.6019 275.828V286.719H98.805C99.0133 286.719 99.1696 286.786 99.2738 286.922C99.3779 287.057 99.43 287.203 99.43 287.359C99.43 287.526 99.3727 287.677 99.2581 287.812C99.154 287.937 98.9977 288 98.7894 288H86.3519ZM116.978 293.469C116.155 293.469 115.379 293.375 114.65 293.187C113.921 293.01 113.327 292.687 112.869 292.219C112.41 291.76 112.181 291.12 112.181 290.297C112.181 289.516 112.364 288.849 112.728 288.297C113.093 287.755 113.53 287.354 114.041 287.094C113.572 286.865 113.207 286.599 112.947 286.297C112.697 285.984 112.572 285.589 112.572 285.109C112.572 284.703 112.702 284.339 112.963 284.016C113.223 283.682 113.53 283.411 113.884 283.203C114.239 282.984 114.556 282.859 114.838 282.828C114.025 282.495 113.374 282.083 112.884 281.594C112.395 281.104 112.15 280.401 112.15 279.484C112.15 278.526 112.384 277.74 112.853 277.125C113.322 276.5 113.936 276.042 114.697 275.75C115.468 275.448 116.301 275.297 117.197 275.297C117.884 275.297 118.551 275.401 119.197 275.609C119.853 275.807 120.431 276.115 120.931 276.531L123.306 274.953C123.671 274.714 124.009 274.547 124.322 274.453C124.645 274.349 124.936 274.297 125.197 274.297C125.572 274.297 125.817 274.38 125.931 274.547C126.046 274.714 126.103 274.896 126.103 275.094C126.103 275.312 125.952 275.5 125.65 275.656C125.348 275.812 124.806 275.891 124.025 275.891L121.384 277.047C121.666 277.401 121.884 277.786 122.041 278.203C122.197 278.62 122.275 279.073 122.275 279.562C122.275 280.948 121.832 281.953 120.947 282.578C120.061 283.203 118.754 283.516 117.025 283.516C116.223 283.516 115.53 283.661 114.947 283.953C114.364 284.245 114.072 284.604 114.072 285.031C114.072 285.375 114.202 285.672 114.463 285.922C114.733 286.172 115.379 286.297 116.4 286.297H117.853C119.03 286.297 120.025 286.385 120.838 286.562C121.66 286.729 122.285 287.062 122.713 287.562C123.15 288.052 123.369 288.792 123.369 289.781C123.369 290.635 123.056 291.333 122.431 291.875C121.806 292.417 121.004 292.818 120.025 293.078C119.056 293.339 118.041 293.469 116.978 293.469ZM117.072 282.359C117.707 282.359 118.306 282.286 118.869 282.141C119.431 281.984 119.89 281.708 120.244 281.312C120.598 280.917 120.775 280.365 120.775 279.656C120.775 278.521 120.41 277.724 119.681 277.266C118.963 276.807 118.124 276.578 117.166 276.578C116.207 276.578 115.379 276.807 114.681 277.266C113.994 277.724 113.65 278.479 113.65 279.531C113.65 280.479 113.983 281.187 114.65 281.656C115.317 282.125 116.124 282.359 117.072 282.359ZM116.947 292.187C117.686 292.187 118.436 292.115 119.197 291.969C119.957 291.823 120.593 291.578 121.103 291.234C121.614 290.901 121.869 290.437 121.869 289.844C121.869 288.885 121.582 288.245 121.009 287.922C120.447 287.589 119.41 287.422 117.9 287.422H115.025C114.827 287.495 114.624 287.677 114.416 287.969C114.207 288.25 114.03 288.568 113.884 288.922C113.749 289.276 113.681 289.604 113.681 289.906C113.681 290.812 113.957 291.417 114.509 291.719C115.072 292.031 115.884 292.187 116.947 292.187ZM144.745 272.281C144.391 272.281 144.084 272.156 143.823 271.906C143.573 271.656 143.448 271.354 143.448 271C143.448 270.635 143.573 270.328 143.823 270.078C144.084 269.828 144.391 269.703 144.745 269.703C145.11 269.703 145.412 269.828 145.651 270.078C145.901 270.328 146.026 270.635 146.026 271C146.026 271.354 145.901 271.656 145.651 271.906C145.412 272.156 145.11 272.281 144.745 272.281ZM138.542 288C138.302 288 138.12 287.932 137.995 287.797C137.88 287.651 137.823 287.495 137.823 287.328C137.823 287.172 137.875 287.031 137.979 286.906C138.094 286.781 138.261 286.719 138.479 286.719H144.292V276.766L139.089 277.469C139.068 277.469 139.047 277.474 139.026 277.484C139.016 277.484 139 277.484 138.979 277.484C138.771 277.484 138.61 277.417 138.495 277.281C138.391 277.146 138.339 276.995 138.339 276.828C138.339 276.682 138.38 276.547 138.464 276.422C138.547 276.297 138.672 276.224 138.839 276.203L145.058 275.344C145.089 275.333 145.146 275.328 145.229 275.328C145.604 275.328 145.792 275.495 145.792 275.828V286.719H150.995C151.203 286.719 151.36 286.786 151.464 286.922C151.568 287.057 151.62 287.203 151.62 287.359C151.62 287.526 151.563 287.677 151.448 287.812C151.344 287.937 151.188 288 150.979 288H138.542ZM170.449 288.266C169.731 288.266 169.064 288.135 168.449 287.875C167.835 287.604 167.34 287.25 166.965 286.812C166.6 286.365 166.418 285.88 166.418 285.359V277.187H164.184C163.944 277.187 163.762 277.12 163.637 276.984C163.522 276.839 163.465 276.682 163.465 276.516C163.465 276.359 163.517 276.219 163.621 276.094C163.736 275.969 163.903 275.906 164.121 275.906H166.418C166.418 274.229 166.46 273.073 166.543 272.437C166.626 271.792 166.897 271.469 167.356 271.469C167.616 271.469 167.772 271.542 167.824 271.687C167.887 271.823 167.918 271.984 167.918 272.172V275.906H173.731C173.939 275.906 174.09 275.974 174.184 276.109C174.288 276.245 174.34 276.391 174.34 276.547C174.34 276.714 174.288 276.865 174.184 277C174.08 277.125 173.923 277.187 173.715 277.187H167.918V284.812C167.918 285.604 168.184 286.167 168.715 286.5C169.246 286.823 169.876 286.984 170.606 286.984C171.345 286.984 172.111 286.854 172.903 286.594C173.694 286.333 174.33 286.021 174.809 285.656C174.85 285.615 174.908 285.594 174.981 285.594C175.126 285.594 175.272 285.682 175.418 285.859C175.564 286.036 175.637 286.214 175.637 286.391C175.637 286.474 175.611 286.552 175.559 286.625C175.35 286.875 174.981 287.13 174.449 287.391C173.918 287.641 173.298 287.849 172.59 288.016C171.892 288.182 171.179 288.266 170.449 288.266ZM193.794 288.25C192.617 288.25 191.701 287.927 191.044 287.281C190.399 286.635 190.076 285.781 190.076 284.719C190.076 283.76 190.331 283.021 190.841 282.5C191.362 281.979 192.044 281.604 192.888 281.375C193.742 281.135 194.685 280.974 195.716 280.891C196.758 280.807 197.8 280.729 198.841 280.656V280.344C198.841 279.208 198.623 278.297 198.185 277.609C197.748 276.922 196.909 276.578 195.669 276.578C194.409 276.578 193.258 276.812 192.216 277.281C192.175 278.01 192.086 278.599 191.951 279.047C191.815 279.484 191.56 279.703 191.185 279.703C190.862 279.703 190.623 279.594 190.466 279.375C190.32 279.156 190.248 278.891 190.248 278.578C190.248 277.62 190.748 276.833 191.748 276.219C192.758 275.604 194.07 275.297 195.685 275.297C196.925 275.297 197.878 275.531 198.544 276C199.221 276.458 199.69 277.12 199.951 277.984C200.211 278.839 200.341 279.865 200.341 281.062V285.937C200.341 286.344 200.425 286.604 200.591 286.719C200.768 286.823 200.956 286.875 201.154 286.875C201.445 286.875 201.742 286.792 202.044 286.625C202.346 286.448 202.576 286.276 202.732 286.109C202.846 285.984 202.971 285.922 203.107 285.922C203.263 285.922 203.399 285.99 203.513 286.125C203.628 286.26 203.685 286.411 203.685 286.578C203.685 286.734 203.633 286.865 203.529 286.969C203.206 287.312 202.826 287.589 202.388 287.797C201.961 288.005 201.508 288.109 201.029 288.109C200.591 288.109 200.169 288 199.763 287.781C199.357 287.562 199.086 287.047 198.951 286.234C198.471 286.776 197.779 287.25 196.873 287.656C195.966 288.052 194.94 288.25 193.794 288.25ZM193.966 286.984C194.893 286.984 195.794 286.812 196.669 286.469C197.555 286.115 198.279 285.641 198.841 285.047V281.734C197.341 281.88 196.05 282.031 194.966 282.187C193.883 282.333 193.05 282.594 192.466 282.969C191.883 283.333 191.591 283.917 191.591 284.719C191.591 285.552 191.82 286.141 192.279 286.484C192.737 286.818 193.3 286.984 193.966 286.984ZM216.249 288C216.009 288 215.827 287.932 215.702 287.797C215.587 287.661 215.53 287.51 215.53 287.344C215.53 287.187 215.582 287.047 215.686 286.922C215.801 286.786 215.967 286.719 216.186 286.719H221.952V270.969L216.436 271.406C216.415 271.406 216.395 271.411 216.374 271.422C216.363 271.422 216.348 271.422 216.327 271.422C216.119 271.422 215.957 271.354 215.842 271.219C215.738 271.083 215.686 270.932 215.686 270.766C215.686 270.62 215.728 270.484 215.811 270.359C215.895 270.234 216.02 270.161 216.186 270.141L222.717 269.547C222.738 269.547 222.759 269.547 222.78 269.547C222.811 269.536 222.848 269.531 222.889 269.531C223.264 269.531 223.452 269.698 223.452 270.031V286.719H228.764C228.973 286.719 229.124 286.786 229.217 286.922C229.322 287.057 229.374 287.203 229.374 287.359C229.374 287.526 229.322 287.677 229.217 287.812C229.113 287.937 228.957 288 228.749 288H216.249ZM274.939 288.266C273.949 288.266 273.064 288.083 272.283 287.719C271.512 287.354 270.876 286.917 270.376 286.406C270.376 287.198 270.293 287.672 270.126 287.828C269.96 287.984 269.777 288.062 269.579 288.062C269.413 288.062 269.262 287.99 269.126 287.844C269.001 287.698 268.939 287.365 268.939 286.844V270.953L266.939 271.078C266.887 271.089 266.835 271.099 266.783 271.109C266.73 271.12 266.678 271.125 266.626 271.125C266.439 271.125 266.288 271.068 266.173 270.953C266.069 270.828 266.017 270.687 266.017 270.531C266.017 270.406 266.053 270.281 266.126 270.156C266.21 270.021 266.345 269.932 266.533 269.891L269.486 269.594C269.548 269.583 269.605 269.578 269.658 269.578C269.71 269.568 269.756 269.562 269.798 269.562C270.225 269.562 270.439 269.766 270.439 270.172V276.953C271.022 276.453 271.652 276.052 272.329 275.75C273.017 275.448 273.866 275.297 274.876 275.297C276.095 275.297 277.147 275.578 278.033 276.141C278.918 276.703 279.595 277.474 280.064 278.453C280.543 279.432 280.783 280.542 280.783 281.781C280.783 283.042 280.548 284.161 280.079 285.141C279.621 286.109 278.954 286.875 278.079 287.437C277.215 287.99 276.168 288.266 274.939 288.266ZM274.908 286.984C275.876 286.984 276.684 286.745 277.329 286.266C277.986 285.786 278.475 285.151 278.798 284.359C279.121 283.568 279.283 282.708 279.283 281.781C279.283 280.854 279.116 280 278.783 279.219C278.449 278.427 277.949 277.792 277.283 277.312C276.616 276.823 275.783 276.578 274.783 276.578C273.793 276.578 272.944 276.76 272.236 277.125C271.527 277.49 270.928 277.979 270.439 278.594V284.719C270.897 285.365 271.491 285.906 272.22 286.344C272.96 286.771 273.855 286.984 274.908 286.984ZM300.893 288.266C299.508 288.266 298.279 288.005 297.206 287.484C296.143 286.953 295.31 286.193 294.706 285.203C294.112 284.214 293.815 283.026 293.815 281.641C293.815 280.307 294.128 279.167 294.753 278.219C295.388 277.271 296.226 276.547 297.268 276.047C298.32 275.547 299.471 275.297 300.721 275.297C302.336 275.297 303.674 275.74 304.737 276.625C305.81 277.51 306.346 278.807 306.346 280.516C306.346 280.901 306.237 281.224 306.018 281.484C305.799 281.745 305.508 281.875 305.143 281.875H295.315C295.367 283.573 295.904 284.849 296.924 285.703C297.945 286.557 299.226 286.984 300.768 286.984C301.529 286.984 302.289 286.844 303.049 286.562C303.81 286.281 304.492 285.854 305.096 285.281C305.315 285.104 305.529 285.016 305.737 285.016C305.924 285.016 306.075 285.083 306.19 285.219C306.305 285.354 306.362 285.516 306.362 285.703C306.362 285.932 306.268 286.151 306.081 286.359C305.695 286.776 305.2 287.125 304.596 287.406C303.992 287.687 303.357 287.901 302.69 288.047C302.034 288.193 301.435 288.266 300.893 288.266ZM295.362 280.734H305.018C304.997 280.349 304.935 279.922 304.831 279.453C304.726 278.974 304.529 278.516 304.237 278.078C303.956 277.641 303.534 277.281 302.971 277C302.419 276.719 301.68 276.578 300.753 276.578C299.232 276.578 297.997 276.937 297.049 277.656C296.112 278.375 295.549 279.401 295.362 280.734ZM326.785 288.266C325.889 288.266 325.009 288.13 324.144 287.859C323.29 287.589 322.556 287.104 321.941 286.406V287.344C321.941 287.573 321.884 287.74 321.769 287.844C321.655 287.948 321.525 288 321.379 288C321.223 288 321.077 287.948 320.941 287.844C320.816 287.729 320.754 287.578 320.754 287.391V283.859C320.754 283.568 320.816 283.359 320.941 283.234C321.077 283.109 321.212 283.047 321.348 283.047C321.493 283.047 321.624 283.094 321.738 283.187C321.853 283.271 321.91 283.495 321.91 283.859C321.91 284.453 322.118 284.984 322.535 285.453C322.962 285.922 323.535 286.297 324.254 286.578C324.983 286.849 325.795 286.984 326.691 286.984C327.858 286.984 328.759 286.802 329.394 286.437C330.04 286.073 330.363 285.505 330.363 284.734C330.363 284.234 330.233 283.818 329.973 283.484C329.712 283.141 329.228 282.901 328.519 282.766L324.363 281.953C323.384 281.766 322.592 281.432 321.988 280.953C321.384 280.464 321.082 279.76 321.082 278.844C321.082 277.906 321.332 277.182 321.832 276.672C322.332 276.161 322.967 275.807 323.738 275.609C324.509 275.401 325.301 275.297 326.113 275.297C327.009 275.297 327.879 275.432 328.723 275.703C329.566 275.974 330.15 276.318 330.473 276.734V276.156C330.462 275.896 330.525 275.703 330.66 275.578C330.806 275.443 330.962 275.375 331.129 275.375C331.295 275.375 331.441 275.437 331.566 275.562C331.702 275.687 331.769 275.88 331.769 276.141V279.281C331.717 279.667 331.499 279.859 331.113 279.859C330.842 279.859 330.67 279.75 330.598 279.531C330.535 279.312 330.499 278.979 330.488 278.531C330.196 277.844 329.644 277.349 328.832 277.047C328.03 276.734 327.087 276.578 326.004 276.578C325.087 276.578 324.306 276.724 323.66 277.016C323.014 277.297 322.691 277.828 322.691 278.609C322.691 279.057 322.827 279.437 323.098 279.75C323.368 280.052 323.894 280.292 324.676 280.469L328.723 281.281C329.629 281.458 330.379 281.797 330.973 282.297C331.577 282.786 331.879 283.604 331.879 284.75C331.879 285.958 331.4 286.849 330.441 287.422C329.483 287.984 328.264 288.266 326.785 288.266ZM346.146 293.781C345.927 293.781 345.76 293.714 345.646 293.578C345.541 293.443 345.489 293.292 345.489 293.125C345.489 292.969 345.541 292.823 345.646 292.687C345.75 292.562 345.906 292.5 346.114 292.5H347.521V276.937L345.833 277.266C345.781 277.276 345.729 277.286 345.677 277.297C345.625 277.307 345.573 277.312 345.521 277.312C345.333 277.312 345.182 277.255 345.068 277.141C344.963 277.016 344.911 276.875 344.911 276.719C344.911 276.594 344.948 276.469 345.021 276.344C345.104 276.208 345.239 276.12 345.427 276.078L347.989 275.562C348.135 275.542 348.229 275.531 348.271 275.531C348.656 275.531 348.859 275.734 348.88 276.141L348.927 277.219C349.427 276.708 350.068 276.26 350.849 275.875C351.64 275.49 352.531 275.297 353.521 275.297C354.75 275.297 355.797 275.578 356.661 276.141C357.536 276.693 358.203 277.458 358.661 278.437C359.13 279.406 359.364 280.521 359.364 281.781C359.364 283.021 359.125 284.13 358.646 285.109C358.177 286.089 357.5 286.859 356.614 287.422C355.729 287.984 354.677 288.266 353.458 288.266C352.448 288.266 351.599 288.115 350.911 287.812C350.234 287.51 349.604 287.109 349.021 286.609V292.5H352.396C352.614 292.5 352.776 292.562 352.88 292.687C352.995 292.812 353.052 292.953 353.052 293.109C353.052 293.276 352.989 293.427 352.864 293.562C352.75 293.708 352.573 293.781 352.333 293.781H346.146ZM353.364 286.984C354.364 286.984 355.198 286.745 355.864 286.266C356.531 285.776 357.031 285.135 357.364 284.344C357.698 283.552 357.864 282.698 357.864 281.781C357.864 280.844 357.703 279.984 357.38 279.203C357.057 278.411 356.568 277.776 355.911 277.297C355.265 276.818 354.458 276.578 353.489 276.578C352.437 276.578 351.541 276.797 350.802 277.234C350.073 277.661 349.479 278.198 349.021 278.844V284.969C349.51 285.583 350.109 286.073 350.818 286.437C351.526 286.802 352.375 286.984 353.364 286.984ZM378.475 288.266C377.152 288.266 375.996 288 375.006 287.469C374.017 286.937 373.241 286.187 372.678 285.219C372.126 284.24 371.85 283.094 371.85 281.781C371.85 279.781 372.459 278.203 373.678 277.047C374.897 275.88 376.496 275.297 378.475 275.297C380.454 275.297 382.053 275.88 383.272 277.047C384.491 278.203 385.1 279.781 385.1 281.781C385.1 283.094 384.819 284.24 384.256 285.219C383.704 286.187 382.933 286.937 381.944 287.469C380.954 288 379.798 288.266 378.475 288.266ZM378.475 286.984C380.048 286.984 381.261 286.5 382.116 285.531C382.98 284.552 383.412 283.302 383.412 281.781C383.412 280.26 382.98 279.016 382.116 278.047C381.261 277.068 380.048 276.578 378.475 276.578C376.902 276.578 375.683 277.068 374.819 278.047C373.965 279.016 373.537 280.26 373.537 281.781C373.537 283.302 373.965 284.552 374.819 285.531C375.683 286.5 376.902 286.984 378.475 286.984ZM398.008 288C397.778 288 397.601 287.932 397.476 287.797C397.351 287.661 397.289 287.51 397.289 287.344C397.289 287.187 397.341 287.047 397.445 286.922C397.56 286.786 397.726 286.719 397.945 286.719H400.633V271.094L397.976 271.469C397.945 271.479 397.909 271.484 397.867 271.484C397.659 271.484 397.497 271.417 397.383 271.281C397.278 271.146 397.226 270.995 397.226 270.828C397.226 270.682 397.268 270.547 397.351 270.422C397.435 270.297 397.56 270.224 397.726 270.203L401.383 269.547C401.403 269.547 401.429 269.547 401.461 269.547C401.492 269.536 401.528 269.531 401.57 269.531C401.945 269.531 402.133 269.698 402.133 270.031V281.766L408.117 277.187H406.508C406.289 277.187 406.122 277.125 406.008 277C405.903 276.865 405.851 276.714 405.851 276.547C405.851 276.38 405.909 276.229 406.023 276.094C406.148 275.958 406.33 275.891 406.57 275.891H411.523C411.752 275.891 411.914 275.964 412.008 276.109C412.112 276.255 412.164 276.422 412.164 276.609C412.164 276.745 412.101 276.875 411.976 277C411.862 277.125 411.716 277.187 411.539 277.187H410.148L405.195 281.031L410.523 286.719H411.883C412.091 286.719 412.247 286.786 412.351 286.922C412.455 287.057 412.508 287.203 412.508 287.359C412.508 287.526 412.455 287.677 412.351 287.812C412.247 287.937 412.091 288 411.883 288H406.992C406.773 288 406.606 287.932 406.492 287.797C406.388 287.661 406.336 287.516 406.336 287.359C406.336 287.193 406.393 287.047 406.508 286.922C406.633 286.786 406.815 286.719 407.054 286.719H408.773L404.101 281.75L402.133 283.187V286.719H403.242C403.45 286.719 403.601 286.786 403.695 286.922C403.799 287.057 403.851 287.203 403.851 287.359C403.851 287.526 403.799 287.677 403.695 287.812C403.591 287.937 403.435 288 403.226 288H398.008ZM431.368 288.266C429.983 288.266 428.754 288.005 427.681 287.484C426.618 286.953 425.785 286.193 425.181 285.203C424.587 284.214 424.29 283.026 424.29 281.641C424.29 280.307 424.602 279.167 425.227 278.219C425.863 277.271 426.701 276.547 427.743 276.047C428.795 275.547 429.946 275.297 431.196 275.297C432.811 275.297 434.149 275.74 435.212 276.625C436.285 277.51 436.821 278.807 436.821 280.516C436.821 280.901 436.712 281.224 436.493 281.484C436.274 281.745 435.983 281.875 435.618 281.875H425.79C425.842 283.573 426.379 284.849 427.399 285.703C428.42 286.557 429.701 286.984 431.243 286.984C432.004 286.984 432.764 286.844 433.524 286.562C434.285 286.281 434.967 285.854 435.571 285.281C435.79 285.104 436.004 285.016 436.212 285.016C436.399 285.016 436.55 285.083 436.665 285.219C436.78 285.354 436.837 285.516 436.837 285.703C436.837 285.932 436.743 286.151 436.556 286.359C436.17 286.776 435.675 287.125 435.071 287.406C434.467 287.687 433.832 287.901 433.165 288.047C432.509 288.193 431.91 288.266 431.368 288.266ZM425.837 280.734H435.493C435.472 280.349 435.41 279.922 435.306 279.453C435.201 278.974 435.004 278.516 434.712 278.078C434.431 277.641 434.009 277.281 433.446 277C432.894 276.719 432.155 276.578 431.227 276.578C429.707 276.578 428.472 276.937 427.524 277.656C426.587 278.375 426.024 279.401 425.837 280.734Z" fill="#FAF9F6"/>
</svg>
