<svg width="56" height="70" viewBox="0 0 56 70" fill="none" xmlns="http://www.w3.org/2000/svg">
<g clip-path="url(#clip0_9_29)">
<path d="M55.3683 11.0737H1.40003C0.932777 11.0737 -0.320223 11.4097 0.0770272 12.094C9.07203 27.6235 18.067 43.153 27.062 58.6825C27.3385 59.1602 28.567 58.8732 28.9083 58.3605C28.9205 58.3447 28.9415 58.3325 28.9503 58.3167C37.9453 42.7872 46.9403 27.2577 55.9353 11.7282C56.168 11.3257 55.7358 11.0737 55.3683 11.0737ZM28.0998 56.4162C22.8848 47.4125 17.6698 38.4087 12.4548 29.405C9.53928 24.3737 6.97728 18.2837 3.36703 13.7145C2.81928 13.0232 2.61978 12.4702 2.45003 12.1185C3.34603 12.1657 4.31028 12.2987 4.78803 12.2987H45.8395C48.0568 12.2987 50.3248 12.1692 52.5385 12.2987C53.1685 12.3355 53.5465 12.3337 53.7723 12.311C53.4485 15.6272 48.349 21.453 46.7793 24.1655C40.5545 34.914 34.3263 45.666 28.0998 56.4162Z" fill="#555555"/>
<path d="M39.6323 20.0635H17.1955C16.9925 20.0635 15.5033 20.3802 15.7658 20.8335C19.5055 27.2892 23.2453 33.745 26.9833 40.2007C27.3 40.7485 28.9345 40.1955 29.0098 39.7685C32.7478 33.3162 36.4858 26.8622 40.222 20.41C40.3988 20.1125 39.746 20.0635 39.6323 20.0635ZM32.6008 30.3955C31.108 32.9715 29.617 35.5475 28.1243 38.1235C24.829 32.436 21.5355 26.7467 18.2403 21.0592H34.958C35.7893 21.0592 36.6923 21.1607 37.52 21.0592C37.842 21.0207 38.0503 21.0452 38.206 21.068C37.6863 21.6665 36.5663 23.5512 36.4543 23.7437C35.1698 25.961 33.8853 28.1782 32.6008 30.3955Z" fill="#555555"/>
</g>
<defs>
<clipPath id="clip0_9_29">
<rect width="56" height="70" fill="white"/>
</clipPath>
</defs>
</svg>
